<svg width="165" height="164" viewBox="0 0 165 164" fill="none" xmlns="http://www.w3.org/2000/svg">
<path d="M40.9433 142.801L58.6273 103.24L86.791 138.824L40.9433 142.801Z" fill="#CE1C22" fill-opacity="0.85"/>
<path d="M91.1483 107.759L86.7896 138.82L58.626 103.235L91.1483 107.759Z" fill="#CE1C22"/>
<path d="M91.1486 107.759L131.047 109.87L86.7902 138.82L91.1486 107.759Z" fill="#CE1C22" fill-opacity="0.9"/>
<path d="M131.047 109.87L91.1488 107.759L135.494 75.0197L131.047 109.87Z" fill="#CE1C22"/>
<path d="M78.0726 81.5229L91.1485 107.759L58.6266 103.235L78.0726 81.5229Z" fill="#CE1C22" fill-opacity="0.9"/>
<path d="M78.0727 81.5228L58.6267 103.235L53.262 48.3507L78.0727 81.5228Z" fill="#CE1C22" fill-opacity="0.8"/>
<path d="M53.2619 48.3508L82.1465 21.8135L78.0725 81.5229L53.2619 48.3508Z" fill="#CE1C22"/>
<path d="M82.0961 21.8131L126.097 30.1037L78.0726 81.5228L82.0961 21.8131Z" fill="#CE1C22" fill-opacity="0.9"/>
</svg>
