<svg width="31" height="30" viewBox="0 0 31 30" fill="none" xmlns="http://www.w3.org/2000/svg">
<g clip-path="url(#clip0_16_10)">
<path d="M15.4254 2.64993C19.5468 2.64993 20.0349 2.66717 21.6558 2.73615C23.1622 2.79938 23.9756 3.04081 24.5179 3.24199C25.2349 3.50641 25.7531 3.82831 26.2894 4.3399C26.8317 4.85724 27.1631 5.34584 27.4403 6.02988C27.6512 6.54722 27.9043 7.32898 27.9705 8.76028C28.0428 10.3123 28.0609 10.7779 28.0609 14.7039C28.0609 18.6357 28.0428 19.1013 27.9705 20.6476C27.9043 22.0847 27.6512 22.8607 27.4403 23.378C27.1631 24.062 26.8257 24.5564 26.2894 25.068C25.7471 25.5853 25.2349 25.9015 24.5179 26.1659C23.9756 26.3671 23.1561 26.6085 21.6558 26.6717C20.0289 26.7407 19.5408 26.7579 15.4254 26.7579C11.3039 26.7579 10.8158 26.7407 9.19497 26.6717C7.68858 26.6085 6.87514 26.3671 6.33284 26.1659C5.6158 25.9015 5.0976 25.5796 4.56133 25.068C4.01903 24.5506 3.68763 24.062 3.41045 23.378C3.19956 22.8607 2.94649 22.0789 2.88021 20.6476C2.8079 19.0956 2.78982 18.63 2.78982 14.7039C2.78982 10.7722 2.8079 10.3066 2.88021 8.76028C2.94649 7.32323 3.19956 6.54722 3.41045 6.02988C3.68763 5.34584 4.02506 4.8515 4.56133 4.3399C5.10363 3.82256 5.6158 3.50641 6.33284 3.24199C6.87514 3.04081 7.69461 2.79938 9.19497 2.73615C10.8158 2.66717 11.3039 2.64993 15.4254 2.64993ZM15.4254 0C11.2376 0 10.7134 0.0172446 9.06843 0.0862233C7.42949 0.155202 6.30271 0.408123 5.32657 0.770261C4.30826 1.14964 3.44661 1.64974 2.59098 2.47173C1.72933 3.28798 1.20511 4.10998 0.807422 5.07568C0.427813 6.01264 0.162689 7.0818 0.0903831 8.64532C0.0180766 10.2203 0 10.7204 0 14.7154C0 18.7104 0.0180766 19.2105 0.0903831 20.7798C0.162689 22.3433 0.427813 23.4182 0.807422 24.3494C1.20511 25.3209 1.72933 26.1429 2.59098 26.9591C3.44661 27.7754 4.30826 28.2812 5.32055 28.6549C6.30271 29.017 7.42346 29.2699 9.06241 29.3389C10.7074 29.4079 11.2316 29.4251 15.4193 29.4251C19.6071 29.4251 20.1313 29.4079 21.7763 29.3389C23.4152 29.2699 24.542 29.017 25.5181 28.6549C26.5304 28.2812 27.3921 27.7754 28.2477 26.9591C29.1033 26.1429 29.6336 25.3209 30.0252 24.3552C30.4049 23.4182 30.67 22.3491 30.7423 20.7856C30.8146 19.2163 30.8327 18.7162 30.8327 14.7212C30.8327 10.7262 30.8146 10.2261 30.7423 8.65682C30.67 7.0933 30.4049 6.01838 30.0252 5.08717C29.6456 4.10998 29.1214 3.28798 28.2598 2.47173C27.4041 1.65549 26.5425 1.14964 25.5302 0.776009C24.548 0.413872 23.4273 0.16095 21.7883 0.0919715C20.1373 0.0172447 19.6131 0 15.4254 0Z" fill="white"/>
<path d="M15.4254 7.15656C11.0508 7.15656 7.50177 10.5423 7.50177 14.7155C7.50177 18.8887 11.0508 22.2744 15.4254 22.2744C19.7999 22.2744 23.3489 18.8887 23.3489 14.7155C23.3489 10.5423 19.7999 7.15656 15.4254 7.15656ZM15.4254 19.6187C12.5873 19.6187 10.2856 17.4229 10.2856 14.7155C10.2856 12.008 12.5873 9.81223 15.4254 9.81223C18.2634 9.81223 20.5651 12.008 20.5651 14.7155C20.5651 17.4229 18.2634 19.6187 15.4254 19.6187Z" fill="white"/>
<path d="M25.5121 6.8576C25.5121 7.8348 24.6806 8.62231 23.6623 8.62231C22.6379 8.62231 21.8124 7.82905 21.8124 6.8576C21.8124 5.8804 22.644 5.0929 23.6623 5.0929C24.6806 5.0929 25.5121 5.88615 25.5121 6.8576Z" fill="white"/>
</g>
<defs>
<clipPath id="clip0_16_10">
<rect width="30.8507" height="29.4309" fill="white"/>
</clipPath>
</defs>
</svg>