<svg width="24" height="281" viewBox="0 0 24 281" fill="none" xmlns="http://www.w3.org/2000/svg">
<g id="Group 48077">
<path id="Twitter" d="M6.848 272.904H8.032V275.944H18V277.4H8.032V280.456H6.848L6.848 272.904ZM9.232 259.432L18 262.168V263.672L11.04 265.784L18 267.896V269.4L9.232 272.152V270.664L16.592 268.648L9.232 266.472V264.984L16.608 262.856L9.232 260.872V259.432ZM7.808 257.235C7.808 257.512 7.712 257.747 7.52 257.939C7.328 258.131 7.09333 258.227 6.816 258.227C6.53867 258.227 6.304 258.131 6.112 257.939C5.92 257.747 5.824 257.512 5.824 257.235C5.824 256.968 5.92 256.744 6.112 256.563C6.304 256.371 6.53867 256.275 6.816 256.275C7.09333 256.275 7.328 256.371 7.52 256.563C7.712 256.744 7.808 256.968 7.808 257.235ZM9.232 256.531H18V257.987H9.232V256.531ZM10.432 252.273H15.6C16.0267 252.273 16.3307 252.183 16.512 252.001C16.6827 251.82 16.768 251.505 16.768 251.057V249.985H18V251.297C18 252.108 17.8133 252.716 17.44 253.121C17.0667 253.527 16.4533 253.729 15.6 253.729H10.432V254.865H9.232V253.729H7.024V252.273H9.232V249.985H10.432V252.273ZM10.432 246.445H15.6C16.0267 246.445 16.3307 246.354 16.512 246.173C16.6827 245.992 16.768 245.677 16.768 245.229V244.157H18V245.469C18 246.28 17.8133 246.888 17.44 247.293C17.0667 247.698 16.4533 247.901 15.6 247.901H10.432V249.037H9.232V247.901H7.024V246.445H9.232V244.157H10.432V246.445ZM13.28 234.393C13.5573 234.393 13.8507 234.409 14.16 234.441L14.16 241.449C15.024 241.396 15.7013 241.102 16.192 240.569C16.672 240.025 16.912 239.369 16.912 238.601C16.912 237.972 16.768 237.449 16.48 237.033C16.1813 236.606 15.7867 236.308 15.296 236.137V234.569C16.1387 234.804 16.8267 235.273 17.36 235.977C17.8827 236.681 18.144 237.556 18.144 238.601C18.144 239.433 17.9573 240.18 17.584 240.841C17.2107 241.492 16.6827 242.004 16 242.377C15.3067 242.75 14.5067 242.937 13.6 242.937C12.6933 242.937 11.8987 242.756 11.216 242.393C10.5333 242.03 10.0107 241.524 9.648 240.873C9.27467 240.212 9.088 239.454 9.088 238.601C9.088 237.769 9.26933 237.033 9.632 236.393C9.99467 235.753 10.496 235.262 11.136 234.921C11.7653 234.569 12.48 234.393 13.28 234.393ZM12.976 235.897C12.4213 235.897 11.9467 236.02 11.552 236.265C11.1467 236.51 10.8427 236.846 10.64 237.273C10.4267 237.689 10.32 238.153 10.32 238.665C10.32 239.401 10.5547 240.03 11.024 240.553C11.4933 241.065 12.144 241.358 12.976 241.433L12.976 235.897ZM10.656 231.015C10.1547 230.759 9.76533 230.396 9.488 229.927C9.21067 229.447 9.072 228.866 9.072 228.183H10.576V228.567C10.576 230.199 11.4613 231.015 13.232 231.015H18V232.471H9.232V231.015H10.656Z" fill="white"/>
<path id="Linkedin" d="M16.816 192.312V188.408H18V193.768H6.848V192.312H16.816ZM7.808 186.11C7.808 186.387 7.712 186.622 7.52 186.814C7.328 187.006 7.09333 187.102 6.816 187.102C6.53867 187.102 6.304 187.006 6.112 186.814C5.92 186.622 5.824 186.387 5.824 186.11C5.824 185.843 5.92 185.619 6.112 185.438C6.304 185.246 6.53867 185.15 6.816 185.15C7.09333 185.15 7.328 185.246 7.52 185.438C7.712 185.619 7.808 185.843 7.808 186.11ZM9.232 185.406H18V186.862H9.232V185.406ZM9.072 178.652C9.072 177.586 9.39733 176.722 10.048 176.06C10.688 175.399 11.616 175.068 12.832 175.068H18V176.508H13.04C12.1653 176.508 11.4987 176.727 11.04 177.164C10.5707 177.602 10.336 178.199 10.336 178.956C10.336 179.724 10.576 180.338 11.056 180.796C11.536 181.244 12.2347 181.468 13.152 181.468H18V182.924H9.232V181.468H10.48C10.032 181.18 9.68533 180.791 9.44 180.3C9.19467 179.799 9.072 179.25 9.072 178.652ZM18 167.794L14.128 171.234H18V172.69H6.16V171.234H13.12L9.232 167.858V165.826L13.6 169.954L18 165.81L18 167.794ZM13.28 156.455C13.5573 156.455 13.8507 156.471 14.16 156.503V163.511C15.024 163.458 15.7013 163.165 16.192 162.631C16.672 162.087 16.912 161.431 16.912 160.663C16.912 160.034 16.768 159.511 16.48 159.095C16.1813 158.669 15.7867 158.37 15.296 158.199V156.631C16.1387 156.866 16.8267 157.335 17.36 158.039C17.8827 158.743 18.144 159.618 18.144 160.663C18.144 161.495 17.9573 162.242 17.584 162.903C17.2107 163.554 16.6827 164.066 16 164.439C15.3067 164.813 14.5067 164.999 13.6 164.999C12.6933 164.999 11.8987 164.818 11.216 164.455C10.5333 164.093 10.0107 163.586 9.648 162.935C9.27467 162.274 9.088 161.517 9.088 160.663C9.088 159.831 9.26933 159.095 9.632 158.455C9.99467 157.815 10.496 157.325 11.136 156.983C11.7653 156.631 12.48 156.455 13.28 156.455ZM12.976 157.959C12.4213 157.959 11.9467 158.082 11.552 158.327C11.1467 158.573 10.8427 158.909 10.64 159.335C10.4267 159.751 10.32 160.215 10.32 160.727C10.32 161.463 10.5547 162.093 11.024 162.615C11.4933 163.127 12.144 163.421 12.976 163.495V157.959ZM13.584 155.078C12.688 155.078 11.904 154.896 11.232 154.534C10.5493 154.171 10.0213 153.675 9.648 153.046C9.27467 152.406 9.088 151.691 9.088 150.902C9.088 150.219 9.248 149.584 9.568 148.998C9.87733 148.411 10.288 147.963 10.8 147.654H6.16V146.182H18V147.654H16.352C16.8747 147.942 17.3067 148.368 17.648 148.934C17.9787 149.499 18.144 150.16 18.144 150.918C18.144 151.696 17.952 152.406 17.568 153.046C17.184 153.675 16.6453 154.171 15.952 154.534C15.2587 154.896 14.4693 155.078 13.584 155.078ZM13.6 147.654C12.9387 147.654 12.3627 147.787 11.872 148.054C11.3813 148.32 11.008 148.683 10.752 149.142C10.4853 149.59 10.352 150.086 10.352 150.63C10.352 151.174 10.48 151.67 10.736 152.118C10.992 152.566 11.3653 152.923 11.856 153.19C12.3467 153.456 12.9227 153.59 13.584 153.59C14.256 153.59 14.8427 153.456 15.344 153.19C15.8347 152.923 16.2133 152.566 16.48 152.118C16.736 151.67 16.864 151.174 16.864 150.63C16.864 150.086 16.736 149.59 16.48 149.142C16.2133 148.683 15.8347 148.32 15.344 148.054C14.8427 147.787 14.2613 147.654 13.6 147.654ZM7.808 142.969C7.808 143.246 7.712 143.481 7.52 143.673C7.328 143.865 7.09333 143.961 6.816 143.961C6.53867 143.961 6.304 143.865 6.112 143.673C5.92 143.481 5.824 143.246 5.824 142.969C5.824 142.702 5.92 142.478 6.112 142.297C6.304 142.105 6.53867 142.009 6.816 142.009C7.09333 142.009 7.328 142.105 7.52 142.297C7.712 142.478 7.808 142.702 7.808 142.969ZM9.232 142.265H18V143.721H9.232V142.265ZM9.072 135.512C9.072 134.445 9.39733 133.581 10.048 132.92C10.688 132.258 11.616 131.928 12.832 131.928H18V133.368H13.04C12.1653 133.368 11.4987 133.586 11.04 134.024C10.5707 134.461 10.336 135.058 10.336 135.816C10.336 136.584 10.576 137.197 11.056 137.656C11.536 138.104 12.2347 138.328 13.152 138.328H18V139.784H9.232V138.328H10.48C10.032 138.04 9.68533 137.65 9.44 137.16C9.19467 136.658 9.072 136.109 9.072 135.512Z" fill="white"/>
<path id="Instagram" d="M6.848 81.312H18V82.768H6.848V81.312ZM9.072 74.5585C9.072 73.4918 9.39733 72.6278 10.048 71.9665C10.688 71.3052 11.616 70.9745 12.832 70.9745H18V72.4145H13.04C12.1653 72.4145 11.4987 72.6332 11.04 73.0705C10.5707 73.5078 10.336 74.1052 10.336 74.8625C10.336 75.6305 10.576 76.2438 11.056 76.7025C11.536 77.1505 12.2347 77.3745 13.152 77.3745H18V78.8305H9.232V77.3745H10.48C10.032 77.0865 9.68533 76.6972 9.44 76.2065C9.19467 75.7052 9.072 75.1558 9.072 74.5585ZM18.144 65.4921C18.144 66.1641 18.032 66.7668 17.808 67.3001C17.5733 67.8335 17.2533 68.2548 16.848 68.5641C16.432 68.8735 15.9573 69.0441 15.424 69.0761V67.5721C15.8613 67.5295 16.2187 67.3268 16.496 66.9641C16.7733 66.5908 16.912 66.1055 16.912 65.5081C16.912 64.9535 16.7893 64.5161 16.544 64.1961C16.2987 63.8761 15.9893 63.7161 15.616 63.7161C15.232 63.7161 14.9493 63.8868 14.768 64.2281C14.576 64.5695 14.3893 65.0975 14.208 65.8121C14.0373 66.4628 13.8667 66.9961 13.696 67.4121C13.5147 67.8175 13.2533 68.1695 12.912 68.4681C12.56 68.7561 12.1013 68.9001 11.536 68.9001C11.088 68.9001 10.6773 68.7668 10.304 68.5001C9.93067 68.2335 9.63733 67.8548 9.424 67.3641C9.2 66.8735 9.088 66.3135 9.088 65.6841C9.088 64.7135 9.33333 63.9295 9.824 63.3321C10.3147 62.7348 10.9867 62.4148 11.84 62.3721V63.8281C11.3813 63.8601 11.0133 64.0468 10.736 64.3881C10.4587 64.7188 10.32 65.1668 10.32 65.7321C10.32 66.2548 10.432 66.6708 10.656 66.9801C10.88 67.2895 11.1733 67.4441 11.536 67.4441C11.824 67.4441 12.064 67.3535 12.256 67.1721C12.4373 66.9801 12.5867 66.7455 12.704 66.4681C12.8107 66.1801 12.9333 65.7855 13.072 65.2841C13.2427 64.6548 13.4133 64.1428 13.584 63.7481C13.744 63.3535 13.9893 63.0175 14.32 62.7401C14.6507 62.4521 15.0827 62.3028 15.616 62.2921C16.096 62.2921 16.528 62.4255 16.912 62.6921C17.296 62.9588 17.6 63.3375 17.824 63.8281C18.0373 64.3081 18.144 64.8628 18.144 65.4921ZM10.432 58.4607H15.6C16.0267 58.4607 16.3307 58.3701 16.512 58.1887C16.6827 58.0074 16.768 57.6927 16.768 57.2448V56.1727H18V57.4847C18 58.2954 17.8133 58.9034 17.44 59.3087C17.0667 59.7141 16.4533 59.9167 15.6 59.9167H10.432V61.0527H9.232V59.9167H7.024V58.4607H9.232V56.1727H10.432V58.4607ZM13.584 54.9526C12.688 54.9526 11.904 54.7713 11.232 54.4086C10.5493 54.046 10.0213 53.55 9.648 52.9206C9.27467 52.2806 9.088 51.5713 9.088 50.7926C9.088 50.0246 9.25333 49.358 9.584 48.7926C9.91467 48.2273 10.3307 47.806 10.832 47.5286H9.232V46.0566H18V47.5286H16.368C16.88 47.8166 17.3067 48.2486 17.648 48.8246C17.9787 49.39 18.144 50.0513 18.144 50.8086C18.144 51.5873 17.952 52.2913 17.568 52.9206C17.184 53.55 16.6453 54.046 15.952 54.4086C15.2587 54.7713 14.4693 54.9526 13.584 54.9526ZM13.6 47.5286C12.9387 47.5286 12.3627 47.662 11.872 47.9286C11.3813 48.1953 11.008 48.558 10.752 49.0166C10.4853 49.4646 10.352 49.9606 10.352 50.5046C10.352 51.0486 10.48 51.5446 10.736 51.9926C10.992 52.4406 11.3653 52.798 11.856 53.0646C12.3467 53.3313 12.9227 53.4646 13.584 53.4646C14.256 53.4646 14.8427 53.3313 15.344 53.0646C15.8347 52.798 16.2133 52.4406 16.48 51.9926C16.736 51.5446 16.864 51.0486 16.864 50.5046C16.864 49.9606 16.736 49.4646 16.48 49.0166C16.2133 48.558 15.8347 48.1953 15.344 47.9286C14.8427 47.662 14.2613 47.5286 13.6 47.5286ZM9.088 39.9801C9.088 39.2228 9.25333 38.5615 9.584 37.9961C9.91467 37.4201 10.3307 36.9935 10.832 36.7161H9.232V35.2441H18.192C18.992 35.2441 19.7013 35.4148 20.32 35.7561C20.9493 36.0975 21.44 36.5881 21.792 37.2281C22.144 37.8575 22.32 38.5935 22.32 39.4361C22.32 40.5881 22.048 41.5481 21.504 42.3161C20.96 43.0841 20.2187 43.5375 19.28 43.6761V42.2361C19.8133 42.0761 20.24 41.7455 20.56 41.2441C20.8907 40.7428 21.056 40.1401 21.056 39.4361C21.056 38.6361 20.8053 37.9855 20.304 37.4841C19.8027 36.9721 19.0987 36.7161 18.192 36.7161H16.352C16.864 37.0041 17.2907 37.4308 17.632 37.9961C17.9733 38.5615 18.144 39.2228 18.144 39.9801C18.144 40.7588 17.952 41.4681 17.568 42.1081C17.184 42.7375 16.6453 43.2335 15.952 43.5961C15.2587 43.9588 14.4693 44.1401 13.584 44.1401C12.688 44.1401 11.904 43.9588 11.232 43.5961C10.5493 43.2335 10.0213 42.7375 9.648 42.1081C9.27467 41.4681 9.088 40.7588 9.088 39.9801ZM13.6 36.7161C12.9387 36.7161 12.3627 36.8495 11.872 37.1161C11.3813 37.3828 11.008 37.7455 10.752 38.2041C10.4853 38.6521 10.352 39.1481 10.352 39.6921C10.352 40.2361 10.48 40.7321 10.736 41.1801C10.992 41.6281 11.3653 41.9855 11.856 42.2521C12.3467 42.5188 12.9227 42.6521 13.584 42.6521C14.256 42.6521 14.8427 42.5188 15.344 42.2521C15.8347 41.9855 16.2133 41.6281 16.48 41.1801C16.736 40.7321 16.864 40.2361 16.864 39.6921C16.864 39.1481 16.736 38.6521 16.48 38.2041C16.2133 37.7455 15.8347 37.3828 15.344 37.1161C14.8427 36.8495 14.2613 36.7161 13.6 36.7161ZM10.656 31.3276C10.1547 31.0716 9.76533 30.709 9.488 30.2396C9.21067 29.7596 9.072 29.1783 9.072 28.4956H10.576V28.8796C10.576 30.5116 11.4613 31.3276 13.232 31.3276H18V32.7836H9.232V31.3276H10.656ZM13.584 27.3589C12.688 27.3589 11.904 27.1775 11.232 26.8149C10.5493 26.4522 10.0213 25.9562 9.648 25.3269C9.27467 24.6869 9.088 23.9775 9.088 23.1989C9.088 22.4309 9.25333 21.7642 9.584 21.1989C9.91467 20.6335 10.3307 20.2122 10.832 19.9349H9.232V18.4629H18V19.9349H16.368C16.88 20.2229 17.3067 20.6549 17.648 21.2309C17.9787 21.7962 18.144 22.4575 18.144 23.2149C18.144 23.9935 17.952 24.6975 17.568 25.3269C17.184 25.9562 16.6453 26.4522 15.952 26.8149C15.2587 27.1775 14.4693 27.3589 13.584 27.3589ZM13.6 19.9349C12.9387 19.9349 12.3627 20.0682 11.872 20.3349C11.3813 20.6015 11.008 20.9642 10.752 21.4229C10.4853 21.8709 10.352 22.3669 10.352 22.9109C10.352 23.4549 10.48 23.9509 10.736 24.3989C10.992 24.8469 11.3653 25.2042 11.856 25.4709C12.3467 25.7375 12.9227 25.8709 13.584 25.8709C14.256 25.8709 14.8427 25.7375 15.344 25.4709C15.8347 25.2042 16.2133 24.8469 16.48 24.3989C16.736 23.9509 16.864 23.4549 16.864 22.9109C16.864 22.3669 16.736 21.8709 16.48 21.4229C16.2133 20.9642 15.8347 20.6015 15.344 20.3349C14.8427 20.0682 14.2613 19.9349 13.6 19.9349ZM9.072 5.45837C9.072 4.77571 9.216 4.16771 9.504 3.63437C9.78133 3.10104 10.2027 2.67971 10.768 2.37037C11.3333 2.06104 12.0213 1.90637 12.832 1.90637H18V3.34637H13.04C12.1653 3.34637 11.4987 3.56504 11.04 4.00237C10.5707 4.42904 10.336 5.01037 10.336 5.74637C10.336 6.50371 10.5813 7.10637 11.072 7.55437C11.552 8.00237 12.2507 8.22637 13.168 8.22637H18V9.66637H13.04C12.1653 9.66637 11.4987 9.88504 11.04 10.3224C10.5707 10.749 10.336 11.3304 10.336 12.0664C10.336 12.8237 10.5813 13.4264 11.072 13.8744C11.552 14.3224 12.2507 14.5464 13.168 14.5464H18V16.0024H9.232V14.5464H10.496C10.0373 14.2584 9.68533 13.8744 9.44 13.3944C9.19467 12.9037 9.072 12.365 9.072 11.7784C9.072 11.0424 9.23733 10.3917 9.568 9.82637C9.89867 9.26104 10.384 8.83971 11.024 8.56237C10.4053 8.31704 9.92533 7.91171 9.584 7.34637C9.24267 6.78104 9.072 6.15171 9.072 5.45837Z" fill="white"/>
</g>
</svg>
