<svg width="24" height="22" viewBox="0 0 24 22" fill="none" xmlns="http://www.w3.org/2000/svg">
<path d="M22.2234 0H1.77187C0.792187 0 0 0.708984 0 1.58555V20.4102C0 21.2867 0.792187 22 1.77187 22H22.2234C23.2031 22 24 21.2867 24 20.4145V1.58555C24 0.708984 23.2031 0 22.2234 0ZM7.12031 18.7473H3.55781V8.2457H7.12031V18.7473ZM5.33906 6.81484C4.19531 6.81484 3.27188 5.96836 3.27188 4.92422C3.27188 3.88008 4.19531 3.03359 5.33906 3.03359C6.47813 3.03359 7.40156 3.88008 7.40156 4.92422C7.40156 5.96406 6.47813 6.81484 5.33906 6.81484ZM20.4516 18.7473H16.8937V13.6426C16.8937 12.4266 16.8703 10.8582 15.0422 10.8582C13.1906 10.8582 12.9094 12.1859 12.9094 13.5566V18.7473H9.35625V8.2457H12.7687V9.68086H12.8156C13.2891 8.85586 14.4516 7.98359 16.1813 7.98359C19.7859 7.98359 20.4516 10.1578 20.4516 12.9852V18.7473Z" fill="white"/>
</svg>
