<svg id="Layer_1" data-name="Layer 1" xmlns="http://www.w3.org/2000/svg" viewBox="0 0 384.6 91.41"><defs><style>.cls-1{fill:#fff;}.cls-2{fill:#231f20;}</style></defs><path class="cls-1" d="M29.44,67.61a26.58,26.58,0,0,1-8.74,1.56c-4.31,0-7.85-1.1-10.64-3.76a14.62,14.62,0,0,1-4-10.6c0-8.48,5.87-14.69,15.41-14.69a17.64,17.64,0,0,1,7.1,1.31l-.89,3a14.67,14.67,0,0,0-6.29-1.23C14.49,43.2,10,47.51,10,54.65s4.34,11.48,11,11.48a12,12,0,0,0,4.9-.76V56.88H20.07v-3h9.37Z" transform="translate(-6.09 -3.51)"/><path class="cls-1" d="M34.93,54.81c0-2.4,0-4.47-.17-6.37H38l.13,4h.17A6.12,6.12,0,0,1,44,48,4.21,4.21,0,0,1,45,48.1v3.5a5.89,5.89,0,0,0-1.27-.12c-2.61,0-4.47,2-5,4.77A11,11,0,0,0,38.6,58V68.87H34.93Z" transform="translate(-6.09 -3.51)"/><path class="cls-1" d="M59.84,68.87l-.29-2.57h-.13a7.63,7.63,0,0,1-6.25,3c-4.14,0-6.25-2.91-6.25-5.87,0-4.94,4.39-7.64,12.29-7.6v-.42c0-1.69-.47-4.73-4.65-4.73a10.18,10.18,0,0,0-5.32,1.52l-.84-2.45A12.67,12.67,0,0,1,55.11,48c6.25,0,7.77,4.27,7.77,8.36V64a29,29,0,0,0,.34,4.89Zm-.55-10.42c-4-.09-8.65.63-8.65,4.6a3.28,3.28,0,0,0,3.5,3.54,5.07,5.07,0,0,0,4.94-3.42A3.76,3.76,0,0,0,59.29,62Z" transform="translate(-6.09 -3.51)"/><path class="cls-1" d="M68.88,55.11c0-2.62-.09-4.73-.17-6.67H72l.17,3.5h.09a8,8,0,0,1,7.26-4c4.94,0,8.65,4.18,8.65,10.39,0,7.35-4.47,11-9.29,11a7.17,7.17,0,0,1-6.29-3.21h-.08V77.24H68.88Zm3.67,5.45a7.94,7.94,0,0,0,.17,1.52,5.73,5.73,0,0,0,5.57,4.35c3.93,0,6.21-3.21,6.21-7.9,0-4.1-2.16-7.6-6.08-7.6a5.94,5.94,0,0,0-5.62,4.6,6.44,6.44,0,0,0-.25,1.52Z" transform="translate(-6.09 -3.51)"/><path class="cls-1" d="M92.9,38.9h3.71V51.65h.09A6.84,6.84,0,0,1,99.36,49a7.7,7.7,0,0,1,3.8-1.06c2.74,0,7.14,1.69,7.14,8.74V68.87h-3.72V57.14c0-3.3-1.22-6.08-4.73-6.08a5.33,5.33,0,0,0-5,3.71,4.55,4.55,0,0,0-.26,1.78V68.87H92.9Z" transform="translate(-6.09 -3.51)"/><path class="cls-1" d="M120.47,42.7a2.3,2.3,0,0,1-4.6,0,2.27,2.27,0,0,1,2.32-2.33A2.21,2.21,0,0,1,120.47,42.7Zm-4.14,26.17V48.44h3.72V68.87Z" transform="translate(-6.09 -3.51)"/><path class="cls-1" d="M140.78,68.11a13.63,13.63,0,0,1-5.87,1.19c-6.16,0-10.18-4.18-10.18-10.43S129,48,135.71,48a12.34,12.34,0,0,1,5.15,1L140,51.94a8.71,8.71,0,0,0-4.31-1c-4.68,0-7.22,3.46-7.22,7.73,0,4.73,3,7.64,7.1,7.64a10.65,10.65,0,0,0,4.56-1Z" transform="translate(-6.09 -3.51)"/><path class="cls-1" d="M168.94,55.53H157.88V65.79h12.33v3.08h-16V40.42h15.37V43.5H157.88v9h11.06Z" transform="translate(-6.09 -3.51)"/><path class="cls-1" d="M174.85,54.81c0-2.4,0-4.47-.17-6.37h3.25l.13,4h.17A6.13,6.13,0,0,1,183.89,48a4.13,4.13,0,0,1,1.05.13v3.5a5.86,5.86,0,0,0-1.26-.12c-2.62,0-4.48,2-5,4.77a11,11,0,0,0-.17,1.73V68.87h-3.67Z" transform="translate(-6.09 -3.51)"/><path class="cls-1" d="M199.76,68.87l-.29-2.57h-.13a7.62,7.62,0,0,1-6.25,3c-4.14,0-6.25-2.91-6.25-5.87,0-4.94,4.39-7.64,12.29-7.6v-.42c0-1.69-.46-4.73-4.64-4.73a10.22,10.22,0,0,0-5.33,1.52l-.84-2.45A12.67,12.67,0,0,1,195,48c6.25,0,7.77,4.27,7.77,8.36V64a29,29,0,0,0,.34,4.89Zm-.55-10.42c-4.05-.09-8.65.63-8.65,4.6a3.28,3.28,0,0,0,3.5,3.54A5.07,5.07,0,0,0,199,63.17a3.76,3.76,0,0,0,.21-1.18Z" transform="translate(-6.09 -3.51)"/><path class="cls-1" d="M221.55,40.42V57.26c0,6.38,2.83,9.08,6.63,9.08,4.22,0,6.92-2.79,6.92-9.08V40.42h3.72V57c0,8.74-4.6,12.33-10.77,12.33-5.83,0-10.22-3.34-10.22-12.16V40.42Z" transform="translate(-6.09 -3.51)"/><path class="cls-1" d="M245.07,54c0-2.11,0-3.84-.17-5.53h3.29l.21,3.38h.09A7.49,7.49,0,0,1,255.24,48c2.83,0,7.22,1.69,7.22,8.7v12.2h-3.71V57.09c0-3.29-1.23-6-4.73-6a5.29,5.29,0,0,0-5,3.8,5.54,5.54,0,0,0-.25,1.73V68.87h-3.71Z" transform="translate(-6.09 -3.51)"/><path class="cls-1" d="M272.64,42.7a2.31,2.31,0,0,1-4.61,0,2.28,2.28,0,0,1,2.33-2.33A2.21,2.21,0,0,1,272.64,42.7ZM268.5,68.87V48.44h3.71V68.87Z" transform="translate(-6.09 -3.51)"/><path class="cls-1" d="M279.81,48.44l4,11.48a53.49,53.49,0,0,1,1.64,5.24h.13c.46-1.69,1-3.38,1.73-5.24l4-11.48h3.88l-8,20.43h-3.55l-7.76-20.43Z" transform="translate(-6.09 -3.51)"/><path class="cls-1" d="M300.33,59.33c.09,5,3.3,7.1,7,7.1A13.44,13.44,0,0,0,313,65.37l.63,2.66a16.49,16.49,0,0,1-6.79,1.27c-6.29,0-10-4.14-10-10.31s3.63-11,9.58-11c6.67,0,8.45,5.87,8.45,9.63a14.3,14.3,0,0,1-.13,1.73Zm10.9-2.66c0-2.36-1-6-5.15-6-3.76,0-5.41,3.47-5.7,6Z" transform="translate(-6.09 -3.51)"/><path class="cls-1" d="M319.42,54.81c0-2.4,0-4.47-.17-6.37h3.25l.13,4h.17A6.12,6.12,0,0,1,328.45,48a4.21,4.21,0,0,1,1.06.13v3.5a5.89,5.89,0,0,0-1.27-.12c-2.61,0-4.47,2-5,4.77a11,11,0,0,0-.17,1.73V68.87h-3.67Z" transform="translate(-6.09 -3.51)"/><path class="cls-1" d="M332.72,65.07a9.72,9.72,0,0,0,4.9,1.48c2.7,0,4-1.35,4-3s-1.06-2.74-3.8-3.76c-3.68-1.3-5.41-3.33-5.41-5.78,0-3.29,2.66-6,7.05-6a10.17,10.17,0,0,1,5,1.27l-.93,2.7a8,8,0,0,0-4.18-1.18c-2.2,0-3.42,1.27-3.42,2.79,0,1.69,1.22,2.45,3.88,3.46,3.55,1.35,5.36,3.12,5.36,6.16,0,3.59-2.78,6.13-7.64,6.13a11.59,11.59,0,0,1-5.74-1.4Z" transform="translate(-6.09 -3.51)"/><path class="cls-1" d="M354.08,42.7A2.19,2.19,0,0,1,351.72,45a2.21,2.21,0,0,1-2.24-2.28,2.27,2.27,0,0,1,2.32-2.33A2.21,2.21,0,0,1,354.08,42.7Zm-4.14,26.17V48.44h3.72V68.87Z" transform="translate(-6.09 -3.51)"/><path class="cls-1" d="M364.3,42.57v5.87h5.32v2.83H364.3v11c0,2.53.72,4,2.79,4a8,8,0,0,0,2.15-.26l.17,2.79a9,9,0,0,1-3.29.51,5.14,5.14,0,0,1-4-1.57c-1.05-1.09-1.43-2.91-1.43-5.32V51.27H357.5V48.44h3.17v-4.9Z" transform="translate(-6.09 -3.51)"/><path class="cls-1" d="M375.53,48.44,380,60.51c.46,1.36,1,3,1.31,4.18h.08c.38-1.22.8-2.78,1.31-4.26l4.05-12h3.93L385.12,63c-2.66,7-4.48,10.59-7,12.79a10.21,10.21,0,0,1-4.56,2.41l-.93-3.13a9.69,9.69,0,0,0,3.25-1.81A11.33,11.33,0,0,0,379,69.13a2.69,2.69,0,0,0,.3-.89,3.47,3.47,0,0,0-.25-1l-7.56-18.83Z" transform="translate(-6.09 -3.51)"/><path class="cls-2" d="M9,89.49l-2-2.94H8.85l1.09,1.62L11,86.55H12.9l-2,2.9,2.29,3.3H11.21l-1.29-2-1.3,2H6.72Z" transform="translate(-6.09 -3.51)"/><path class="cls-1" d="M21.22,89.08h-6V87.8h6Zm0,2.56h-6V90.36h6Z" transform="translate(-6.09 -3.51)"/><path class="cls-1" d="M25.86,85.59H24.15v-1.4h1.71Zm-1.71,1h1.71v6.2H24.15Z" transform="translate(-6.09 -3.51)"/><path class="cls-1" d="M27,86.55h1.62v.86h0a2.23,2.23,0,0,1,1.9-1c1.81,0,2.26,1,2.26,2.56v3.81h-1.7v-3.5c0-1-.3-1.53-1.09-1.53s-1.32.52-1.32,1.78v3.25H27Z" transform="translate(-6.09 -3.51)"/><path class="cls-1" d="M38.25,92h0a2,2,0,0,1-1.88,1c-1.87,0-2.78-1.6-2.78-3.32s.92-3.21,2.75-3.21a2.14,2.14,0,0,1,1.84.93h0V84.19h1.71v8.56H38.25Zm-1.49-4.3c-1.11,0-1.5,1-1.5,2s.45,2,1.5,2,1.46-1,1.46-2S37.86,87.66,36.76,87.66Z" transform="translate(-6.09 -3.51)"/><path class="cls-1" d="M42.31,90.06c0,1.08.58,1.57,1.52,1.57a1.41,1.41,0,0,0,1.35-.8h1.49a2.78,2.78,0,0,1-2.9,2.08,3,3,0,0,1-3.16-3.26,3.11,3.11,0,0,1,3.16-3.27c2.11,0,3.13,1.78,3,3.68ZM45.08,89c-.16-.86-.53-1.32-1.35-1.32A1.34,1.34,0,0,0,42.31,89Z" transform="translate(-6.09 -3.51)"/><path class="cls-1" d="M47.55,86.55h1.62v.79h0a2.07,2.07,0,0,1,1.85-1c1.94,0,2.81,1.57,2.81,3.33s-.91,3.2-2.72,3.2A2.21,2.21,0,0,1,49.27,92h0v3h-1.7Zm4.6,3.12c0-1-.4-2-1.49-2s-1.47,1-1.47,2,.38,2,1.49,2S52.15,90.67,52.15,89.67Z" transform="translate(-6.09 -3.51)"/><path class="cls-1" d="M56,90.06c0,1.08.58,1.57,1.53,1.57a1.41,1.41,0,0,0,1.34-.8h1.5a2.79,2.79,0,0,1-2.9,2.08,3,3,0,0,1-3.17-3.26,3.11,3.11,0,0,1,3.17-3.27c2.1,0,3.12,1.78,3,3.68ZM58.8,89c-.15-.86-.53-1.32-1.35-1.32A1.35,1.35,0,0,0,56,89Z" transform="translate(-6.09 -3.51)"/><path class="cls-1" d="M61.27,86.55h1.62v.86h0a2.24,2.24,0,0,1,1.9-1c1.81,0,2.26,1,2.26,2.56v3.81h-1.7v-3.5c0-1-.3-1.53-1.09-1.53S63,88.24,63,89.5v3.25h-1.7Z" transform="translate(-6.09 -3.51)"/><path class="cls-1" d="M72.56,92h0a2.06,2.06,0,0,1-1.89,1c-1.87,0-2.78-1.6-2.78-3.32s.93-3.21,2.75-3.21a2.14,2.14,0,0,1,1.84.93h0V84.19h1.7v8.56H72.56Zm-1.49-4.3c-1.11,0-1.49,1-1.49,2s.44,2,1.49,2,1.47-1,1.47-2S72.18,87.66,71.07,87.66Z" transform="translate(-6.09 -3.51)"/><path class="cls-1" d="M76.62,90.06c0,1.08.58,1.57,1.52,1.57a1.41,1.41,0,0,0,1.35-.8H81a2.79,2.79,0,0,1-2.9,2.08,3,3,0,0,1-3.17-3.26,3.11,3.11,0,0,1,3.17-3.27c2.1,0,3.12,1.78,3,3.68ZM79.39,89c-.15-.86-.53-1.32-1.35-1.32A1.35,1.35,0,0,0,76.62,89Z" transform="translate(-6.09 -3.51)"/><path class="cls-1" d="M81.86,86.55h1.62v.86h0a2.24,2.24,0,0,1,1.9-1c1.81,0,2.26,1,2.26,2.56v3.81H86v-3.5c0-1-.3-1.53-1.09-1.53s-1.32.52-1.32,1.78v3.25h-1.7Z" transform="translate(-6.09 -3.51)"/><path class="cls-1" d="M90.88,86.55h1.25v1.14H90.88v3.07c0,.57.15.72.72.72a3.17,3.17,0,0,0,.53,0v1.33a6.27,6.27,0,0,1-1,.06c-1,0-2-.24-2-1.48V87.69h-1V86.55h1V84.69h1.7Z" transform="translate(-6.09 -3.51)"/><path class="cls-1" d="M92.75,84.19h1.71v8.56H92.75Z" transform="translate(-6.09 -3.51)"/><path class="cls-1" d="M98.61,93.53a1.94,1.94,0,0,1-2.13,1.4c-.35,0-.69,0-1-.06v-1.4c.32,0,.66.07,1,.06A.81.81,0,0,0,97,92.36l-2.18-5.81h1.82l1.4,4.24h0l1.35-4.24h1.76Z" transform="translate(-6.09 -3.51)"/><path class="cls-1" d="M106.67,85.73a3.27,3.27,0,1,1-3.2,3.27A3,3,0,0,1,106.67,85.73Zm0,5.25c1.17,0,1.51-1,1.51-2s-.34-2-1.51-2-1.49,1-1.49,2S105.52,91,106.67,91Z" transform="translate(-6.09 -3.51)"/><path class="cls-1" d="M110.51,85.9h1.62v1.15h0a2.19,2.19,0,0,1,2-1.32,1.51,1.51,0,0,1,.37.06v1.58a3.71,3.71,0,0,0-.61-.06c-1.25,0-1.68.9-1.68,2v2.8h-1.7Z" transform="translate(-6.09 -3.51)"/><path class="cls-1" d="M120.89,91.7c0,1-.36,2.74-3.21,2.74-1.23,0-2.65-.57-2.74-2h1.69a1.16,1.16,0,0,0,1.27.85c.95,0,1.38-.65,1.37-1.54V91h0a2.13,2.13,0,0,1-1.86,1c-1.86,0-2.65-1.42-2.65-3.12s.92-3.07,2.66-3.07a1.94,1.94,0,0,1,1.85,1h0V85.9h1.62Zm-1.62-2.78c0-1-.35-1.91-1.45-1.91s-1.38.84-1.38,1.77.34,1.85,1.38,1.85A1.52,1.52,0,0,0,119.27,88.92Z" transform="translate(-6.09 -3.51)"/><path class="cls-1" d="M121.7,87.81c.1-1.6,1.52-2.08,2.91-2.08,1.24,0,2.72.28,2.72,1.76v3.23a3.14,3.14,0,0,0,.22,1.38h-1.73a3.19,3.19,0,0,1-.12-.6,2.83,2.83,0,0,1-2.08.76c-1.18,0-2.11-.58-2.11-1.85s1-1.74,2.11-1.89,2-.12,2-.81-.5-.84-1.1-.84-1.07.26-1.13.94Zm3.93,1.25a3.13,3.13,0,0,1-1.41.36c-.53.11-1,.29-1,.91s.49.8,1,.8a1.27,1.27,0,0,0,1.38-1.43Z" transform="translate(-6.09 -3.51)"/><path class="cls-1" d="M128.41,85.9H130v.86h0a2.21,2.21,0,0,1,1.89-1c1.81,0,2.27,1,2.27,2.55V92.1h-1.71V88.6c0-1-.3-1.53-1.09-1.53s-1.32.52-1.32,1.78V92.1h-1.7Z" transform="translate(-6.09 -3.51)"/><path class="cls-1" d="M136.79,84.94h-1.7v-1.4h1.7Zm-1.7,1h1.7v6.2h-1.7Z" transform="translate(-6.09 -3.51)"/><path class="cls-1" d="M137.51,90.81l3.22-3.63h-3V85.9H143v1.28l-3.22,3.63h3.45V92.1h-5.69Z" transform="translate(-6.09 -3.51)"/><path class="cls-1" d="M145.28,89.41c0,1.08.57,1.57,1.52,1.57a1.41,1.41,0,0,0,1.34-.8h1.5a2.79,2.79,0,0,1-2.9,2.08A3,3,0,0,1,143.57,89a3.12,3.12,0,0,1,3.17-3.27c2.11,0,3.13,1.78,3,3.68ZM148,88.33c-.15-.86-.52-1.32-1.35-1.32a1.33,1.33,0,0,0-1.41,1.32Z" transform="translate(-6.09 -3.51)"/><path class="cls-1" d="M154.94,91.3h0a2,2,0,0,1-1.88,1c-1.87,0-2.78-1.6-2.78-3.32s.92-3.21,2.74-3.21a2.18,2.18,0,0,1,1.85.92h0V83.54h1.7V92.1h-1.61ZM153.45,87c-1.12,0-1.5,1-1.5,2s.44,2,1.5,2,1.46-1,1.46-2S154.55,87,153.45,87Z" transform="translate(-6.09 -3.51)"/><path class="cls-1" d="M162.76,85.12H160.2V83.54h7v1.58h-2.57v7h-1.88Z" transform="translate(-6.09 -3.51)"/><path class="cls-1" d="M168,83.54h6.4v1.58h-4.52V87H174v1.47h-4.15v2.09h4.62V92.1H168Z" transform="translate(-6.09 -3.51)"/><path class="cls-1" d="M175.24,83.54h3.69c2.22,0,3.88,1.39,3.88,4.23,0,2.48-1.27,4.33-3.88,4.33h-3.69Zm1.88,7h1.68c1.09,0,2.13-.67,2.13-2.56,0-1.73-.6-2.83-2.47-2.83h-1.34Z" transform="translate(-6.09 -3.51)"/><path class="cls-1" d="M188.19,89.41c.05,1.08.58,1.57,1.52,1.57a1.41,1.41,0,0,0,1.35-.8h1.49a2.77,2.77,0,0,1-2.9,2.08A3,3,0,0,1,186.49,89a3.11,3.11,0,0,1,3.16-3.27c2.11,0,3.13,1.78,3,3.68ZM191,88.33c-.15-.86-.53-1.32-1.35-1.32a1.35,1.35,0,0,0-1.42,1.32Z" transform="translate(-6.09 -3.51)"/><path class="cls-1" d="M196.62,92.1h-1.9l-2.12-6.2h1.79l1.3,4.23h0L197,85.9h1.69Z" transform="translate(-6.09 -3.51)"/><path class="cls-1" d="M200.34,89.41c0,1.08.58,1.57,1.53,1.57a1.41,1.41,0,0,0,1.34-.8h1.5a2.79,2.79,0,0,1-2.9,2.08A3,3,0,0,1,198.64,89a3.12,3.12,0,0,1,3.17-3.27c2.11,0,3.13,1.78,3,3.68Zm2.77-1.08c-.15-.86-.52-1.32-1.35-1.32a1.35,1.35,0,0,0-1.42,1.32Z" transform="translate(-6.09 -3.51)"/><path class="cls-1" d="M205.58,85.9h1.62v.86h0a2.21,2.21,0,0,1,1.89-1c1.81,0,2.27,1,2.27,2.55V92.1h-1.71V88.6c0-1-.3-1.53-1.09-1.53s-1.32.52-1.32,1.78V92.1h-1.7Z" transform="translate(-6.09 -3.51)"/><path class="cls-1" d="M214.61,85.9h1.24V87h-1.24v3.07c0,.57.14.72.72.72a3.05,3.05,0,0,0,.52,0v1.33a6.2,6.2,0,0,1-1,.06c-1,0-2-.24-2-1.48V87h-1V85.9h1V84h1.71Z" transform="translate(-6.09 -3.51)"/><path class="cls-2" d="M14.08,10.87h-8V3.57H30.83v7.3h-8V32.06H14.08Z" transform="translate(-6.09 -3.51)"/><path class="cls-2" d="M32.19,3.57h24v7.3H41v3.55H56.21v6.79H41v3.55H56.22v7.3h-24Z" transform="translate(-6.09 -3.51)"/><path class="cls-2" d="M57.69,3.57H72.1c9.49,0,12.85,7,12.85,14.2,0,8.75-4.63,14.29-14.57,14.29H57.69Zm8.78,21.19H69.9c5.47,0,6.27-4.43,6.27-7.11,0-1.79-.56-6.78-6.91-6.78H66.47Z" transform="translate(-6.09 -3.51)"/><path class="cls-2" d="M97.56,21.08l-2.68-4.44-2.61,4.44H85.84l6.11-9L86.07,3.51H92.5l2.38,4.25,2.46-4.25h6.43L97.89,12.1l6.11,9Z" transform="translate(-6.09 -3.51)"/></svg>