<svg width="1174" height="392" viewBox="0 0 1174 392" fill="none" xmlns="http://www.w3.org/2000/svg">
<path d="M21.0808 365.529L11.465 351.671H20.6285L25.7752 359.308L30.8664 351.671H39.747L30.1307 365.359L40.9343 380.915H31.7713L25.6626 371.695L19.5538 380.915H10.5601L21.0808 365.529" fill="#EE2922"/>
<path d="M78.998 375.711H50.4333V369.658H78.998V375.711ZM78.998 363.606H50.4333V357.554H78.998V363.606Z" fill="white"/>
<path d="M92.8538 351.671H100.885V380.915H92.8538V351.671ZM100.885 347.146H92.8538V340.528H100.885V347.146Z" fill="white"/>
<path d="M106.088 351.671H113.724V355.744H113.894C115.93 352.463 119.437 350.88 122.83 350.88C131.371 350.88 133.521 355.687 133.521 362.927V380.915H125.489V364.397C125.489 359.59 124.074 357.215 120.342 357.215C115.987 357.215 114.12 359.646 114.12 365.585V380.915H106.088V351.671" fill="white"/>
<path d="M152.353 356.931C147.093 356.931 145.283 361.457 145.283 366.265C145.283 370.847 147.376 375.654 152.353 375.654C157.67 375.654 159.255 371.016 159.255 366.208C159.255 361.457 157.557 356.931 152.353 356.931ZM159.367 377.181H159.255C157.388 380.348 154.107 381.707 150.373 381.707C141.55 381.707 137.251 374.126 137.251 366.038C137.251 358.177 141.606 350.88 150.204 350.88C153.655 350.88 157.049 352.35 158.914 355.236H158.858H158.972V340.528H167.003V380.915H159.367V377.181" fill="white"/>
<path d="M191.605 363.153C190.869 359.082 189.117 356.931 185.213 356.931C180.122 356.931 178.652 360.892 178.539 363.153H191.605ZM178.539 368.244C178.765 373.335 181.255 375.654 185.723 375.654C188.947 375.654 191.549 373.674 192.058 371.864H199.128C196.865 378.765 192.058 381.707 185.441 381.707C176.22 381.707 170.508 375.372 170.508 366.321C170.508 357.554 176.559 350.88 185.441 350.88C195.395 350.88 200.203 359.252 199.637 368.244H178.539Z" fill="white"/>
<path d="M224.975 366.377C224.975 361.74 223.108 356.931 217.962 356.931C212.702 356.931 211.004 361.627 211.004 366.377C211.004 371.129 212.815 375.654 218.018 375.654C223.279 375.654 224.975 371.129 224.975 366.377ZM203.255 351.672H210.891V355.404H211.004C212.927 352.294 216.095 350.88 219.715 350.88C228.878 350.88 233.008 358.29 233.008 366.603C233.008 374.409 228.709 381.707 220.168 381.707C216.66 381.707 213.323 380.179 211.401 377.294H211.288V391.208H203.255V351.672" fill="white"/>
<path d="M256.365 363.153C255.629 359.082 253.877 356.931 249.973 356.931C244.882 356.931 243.412 360.892 243.298 363.153H256.365ZM243.298 368.244C243.525 373.335 246.014 375.654 250.482 375.654C253.706 375.654 256.309 373.674 256.817 371.864H263.888C261.625 378.765 256.817 381.707 250.199 381.707C240.979 381.707 235.267 375.372 235.267 366.321C235.267 357.554 241.319 350.88 250.199 350.88C260.154 350.88 264.963 359.252 264.396 368.244H243.298Z" fill="white"/>
<path d="M268.014 351.671H275.65V355.744H275.821C277.856 352.463 281.363 350.88 284.757 350.88C293.298 350.88 295.447 355.687 295.447 362.927V380.915H287.415V364.397C287.415 359.59 286.001 357.215 282.269 357.215C277.914 357.215 276.047 359.646 276.047 365.585V380.915H268.014V351.671" fill="white"/>
<path d="M314.28 356.931C309.02 356.931 307.209 361.457 307.209 366.265C307.209 370.847 309.302 375.654 314.28 375.654C319.597 375.654 321.18 371.016 321.18 366.208C321.18 361.457 319.484 356.931 314.28 356.931ZM321.293 377.181H321.18C319.315 380.348 316.033 381.707 312.3 381.707C303.477 381.707 299.178 374.126 299.178 366.038C299.178 358.177 303.533 350.88 312.131 350.88C315.581 350.88 318.975 352.35 320.841 355.236H320.785H320.898V340.528H328.929V380.915H321.293V377.181" fill="white"/>
<path d="M353.532 363.153C352.796 359.082 351.042 356.931 347.14 356.931C342.049 356.931 340.579 360.892 340.466 363.153H353.532ZM340.466 368.244C340.692 373.335 343.18 375.654 347.649 375.654C350.873 375.654 353.476 373.674 353.984 371.864H361.055C358.792 378.765 353.984 381.707 347.366 381.707C338.147 381.707 332.434 375.372 332.434 366.321C332.434 357.554 338.486 350.88 347.366 350.88C357.321 350.88 362.13 359.252 361.563 368.244H340.466Z" fill="white"/>
<path d="M365.181 351.671H372.817V355.744H372.987C375.023 352.463 378.529 350.88 381.924 350.88C390.465 350.88 392.613 355.687 392.613 362.927V380.915H384.582V364.397C384.582 359.59 383.168 357.215 379.435 357.215C375.08 357.215 373.214 359.646 373.214 365.585V380.915H365.181V351.671" fill="white"/>
<path d="M407.77 351.672H413.653V357.044H407.77V371.525C407.77 374.241 408.449 374.918 411.165 374.918C412.012 374.918 412.804 374.862 413.653 374.692V380.971C412.296 381.197 410.542 381.254 408.958 381.254C404.037 381.254 399.738 380.123 399.738 374.298V357.044H394.874V351.672H399.738V342.904H407.77V351.672" fill="white"/>
<path d="M416.592 340.528H424.624V380.915H416.592V340.528Z" fill="white"/>
<path d="M444.251 384.59C442.497 389.286 439.726 391.208 434.182 391.208C432.542 391.208 430.901 391.095 429.262 390.925V384.307C430.788 384.421 432.371 384.647 433.956 384.59C436.728 384.307 437.633 381.423 436.728 379.105L426.433 351.672H435.031L441.648 371.695H441.761L448.153 351.672H456.468L444.251 384.59Z" fill="white"/>
<path d="M486.84 375.654C492.326 375.654 493.967 370.96 493.967 366.321C493.967 361.627 492.326 356.931 486.84 356.931C481.41 356.931 479.77 361.627 479.77 366.321C479.77 370.96 481.41 375.654 486.84 375.654ZM486.84 350.88C496.06 350.88 502 356.987 502 366.321C502 375.598 496.06 381.707 486.84 381.707C477.677 381.707 471.738 375.598 471.738 366.321C471.738 356.987 477.677 350.88 486.84 350.88Z" fill="white"/>
<path d="M504.938 351.671H512.574V357.102H512.687C514.157 353.425 518.117 350.88 522.019 350.88C522.585 350.88 523.264 350.993 523.772 351.162V358.628C523.037 358.46 521.849 358.346 520.887 358.346C515.005 358.346 512.969 362.588 512.969 367.734V380.915H504.938V351.671Z" fill="white"/>
<path d="M546.282 365.926C546.282 361.173 544.642 356.931 539.438 356.931C534.914 356.931 532.934 360.892 532.934 365.246C532.934 369.432 534.517 374.015 539.438 374.015C544.02 374.015 546.282 370.111 546.282 365.926ZM553.919 379.048C553.919 383.856 552.222 392 538.759 392C532.99 392 526.26 389.286 525.863 382.611H533.839C534.575 385.609 537.006 386.628 539.834 386.628C544.304 386.628 546.34 383.572 546.282 379.387V375.541H546.169C544.416 378.596 540.91 380.066 537.402 380.066C528.635 380.066 524.901 373.392 524.901 365.359C524.901 357.779 529.258 350.88 537.459 350.88C541.305 350.88 544.247 352.18 546.169 355.574H546.282V351.672H553.919V379.048" fill="white"/>
<path d="M576.315 366.603C574.958 367.792 572.129 367.849 569.641 368.301C567.151 368.809 564.889 369.658 564.889 372.6C564.889 375.598 567.209 376.333 569.81 376.333C576.089 376.333 576.315 371.356 576.315 369.601V366.603ZM557.763 360.665C558.215 353.142 564.945 350.88 571.506 350.88C577.333 350.88 584.346 352.18 584.346 359.195V374.409C584.346 377.067 584.63 379.727 585.366 380.915H577.22C576.936 380.01 576.711 379.048 576.654 378.086C574.109 380.746 570.375 381.707 566.812 381.707C561.269 381.707 556.857 378.935 556.857 372.94C556.857 366.321 561.834 364.737 566.812 364.059C571.734 363.324 576.315 363.494 576.315 360.213C576.315 356.762 573.939 356.253 571.111 356.253C568.056 356.253 566.076 357.497 565.794 360.665H557.763Z" fill="white"/>
<path d="M589.435 351.671H597.071V355.744H597.241C599.277 352.463 602.784 350.88 606.178 350.88C614.718 350.88 616.868 355.687 616.868 362.927V380.915H608.836V364.397C608.836 359.59 607.423 357.215 603.689 357.215C599.334 357.215 597.467 359.646 597.467 365.585V380.915H589.435V351.671Z" fill="white"/>
<path d="M620.937 351.671H628.97V380.915H620.937V351.671ZM628.97 347.146H620.937V340.528H628.97V347.146Z" fill="white"/>
<path d="M632.362 374.862L647.579 357.724H633.494V351.671H658.155V357.724L642.94 374.862H659.23V380.915H632.362V374.862" fill="white"/>
<path d="M682.079 363.153C681.344 359.082 679.591 356.931 675.688 356.931C670.597 356.931 669.127 360.892 669.014 363.153H682.079ZM669.014 368.244C669.24 373.335 671.73 375.654 676.196 375.654C679.42 375.654 682.023 373.674 682.531 371.864H689.602C687.34 378.765 682.531 381.707 675.913 381.707C666.695 381.707 660.981 375.372 660.981 366.321C660.981 357.554 667.034 350.88 675.913 350.88C685.868 350.88 690.677 359.252 690.111 368.244H669.014Z" fill="white"/>
<path d="M707.587 356.931C702.328 356.931 700.518 361.457 700.518 366.265C700.518 370.847 702.61 375.654 707.587 375.654C712.904 375.654 714.488 371.016 714.488 366.208C714.488 361.457 712.791 356.931 707.587 356.931ZM714.602 377.181H714.488C712.621 380.348 709.341 381.707 705.609 381.707C696.783 381.707 692.485 374.126 692.485 366.038C692.485 358.177 696.84 350.88 705.438 350.88C708.889 350.88 712.283 352.35 714.148 355.236H714.091H714.204V340.528H722.238V380.915H714.602V377.181" fill="white"/>
<path d="M751.533 347.995H739.43V340.528H772.518V347.995H760.414V380.915H751.533V347.995Z" fill="white"/>
<path d="M776.022 340.528H806.226V347.995H784.902V356.649H804.474V363.55H784.902V373.449H806.679V380.915H776.022V340.528Z" fill="white"/>
<path d="M819.291 373.449H827.209C832.356 373.449 837.278 370.281 837.278 361.343C837.278 353.198 834.449 347.995 825.625 347.995H819.291V373.449ZM810.409 340.528H827.831C838.296 340.528 846.157 347.089 846.157 360.495C846.157 372.204 840.162 380.915 827.831 380.915H810.409V340.528Z" fill="white"/>
<path d="M884.616 363.153C883.881 359.082 882.127 356.931 878.225 356.931C873.134 356.931 871.664 360.892 871.551 363.153H884.616ZM871.551 368.244C871.776 373.335 874.265 375.654 878.733 375.654C881.957 375.654 884.56 373.674 885.068 371.864H892.139C889.877 378.765 885.068 381.707 878.45 381.707C869.232 381.707 863.518 375.372 863.518 366.321C863.518 357.554 869.571 350.88 878.45 350.88C888.405 350.88 893.214 359.252 892.648 368.244H871.551Z" fill="white"/>
<path d="M911.313 380.915H902.376L892.364 351.671H900.791L906.957 371.638H907.07L913.234 351.671H921.211L911.313 380.915" fill="white"/>
<path d="M941.966 363.153C941.232 359.082 939.478 356.931 935.576 356.931C930.485 356.931 929.013 360.892 928.901 363.153H941.966ZM928.901 368.244C929.126 373.335 931.616 375.654 936.084 375.654C939.308 375.654 941.91 373.674 942.419 371.864H949.489C947.226 378.765 942.419 381.707 935.8 381.707C926.581 381.707 920.869 375.372 920.869 366.321C920.869 357.554 926.921 350.88 935.8 350.88C945.756 350.88 950.563 359.252 949.998 368.244H928.901" fill="white"/>
<path d="M953.617 351.671H961.254V355.744H961.423C963.46 352.463 966.967 350.88 970.36 350.88C978.901 350.88 981.051 355.687 981.051 362.927V380.915H973.019V364.397C973.019 359.59 971.604 357.215 967.872 357.215C963.516 357.215 961.649 359.646 961.649 365.585V380.915H953.617V351.671Z" fill="white"/>
<path d="M996.205 351.672H1002.09V357.044H996.205V371.525C996.205 374.241 996.885 374.918 999.599 374.918C1000.45 374.918 1001.24 374.862 1002.09 374.692V380.971C1000.73 381.197 998.978 381.254 997.393 381.254C992.473 381.254 988.174 380.123 988.174 374.298V357.044H983.309V351.672H988.174V342.904H996.205V351.672" fill="white"/>
<path d="M45.2901 34.7243H7.60522V0.259171H124.364V34.7243H86.693V134.729H45.2901V34.7243Z" fill="#EE2922"/>
<path d="M130.799 0.259171H244.143V34.7243H172.23V51.4809H244.143V83.5073H172.23V100.265H244.163V134.729H130.799V0.259171Z" fill="#EE2922"/>
<path d="M292.545 100.265H308.747C334.556 100.265 338.329 79.3531 338.329 66.7214C338.329 58.2631 335.678 34.7243 305.73 34.7243H292.545V100.265ZM251.117 0.259171H319.104C363.92 0.259171 379.759 33.4065 379.759 67.2958C379.759 108.553 357.911 134.729 311.014 134.729H251.117V0.259171Z" fill="#EE2922"/>
<path d="M439.289 82.9101L426.651 61.9523L414.326 82.9101H383.971L412.789 40.5344L385.04 1.15957e-05H415.405L426.651 20.0366L438.219 1.15957e-05H468.575L440.835 40.5344L469.652 82.9101H439.289" fill="#EE2922"/>
<path d="M56.9321 201.047C55.1803 197.835 52.7717 195.39 49.7061 193.711C46.6405 192.033 43.064 191.193 38.9766 191.193C34.4512 191.193 30.4368 192.215 26.9333 194.259C23.4297 196.303 20.6926 199.222 18.7219 203.018C16.7512 206.813 15.7658 211.192 15.7658 216.156C15.7658 221.265 16.7512 225.717 18.7219 229.513C20.7656 233.308 23.5757 236.228 27.1522 238.272C30.7287 240.315 34.8892 241.337 39.6335 241.337C45.4727 241.337 50.2535 239.805 53.976 236.739C57.6985 233.6 60.1436 229.257 61.3115 223.71H35.0351V211.995H76.4204V225.353C75.3985 230.681 73.2088 235.608 69.8513 240.133C66.4938 244.658 62.1509 248.308 56.8226 251.081C51.5673 253.782 45.6552 255.132 39.0861 255.132C31.7141 255.132 25.0355 253.49 19.0504 250.206C13.1382 246.848 8.46682 242.213 5.0363 236.301C1.67877 230.389 0 223.674 0 216.156C0 208.638 1.67877 201.923 5.0363 196.011C8.46682 190.025 13.1382 185.391 19.0504 182.106C25.0355 178.749 31.6776 177.07 38.9766 177.07C47.5894 177.07 55.0708 179.186 61.421 183.42C67.7711 187.58 72.1505 193.456 74.5591 201.047H56.9321Z" fill="white"/>
<path d="M103.088 203.237C105.059 200.025 107.614 197.507 110.752 195.682C113.964 193.857 117.613 192.945 121.701 192.945V209.039H117.65C112.833 209.039 109.183 210.171 106.701 212.433C104.293 214.696 103.088 218.637 103.088 224.258V254.475H87.7606V193.821H103.088V203.237Z" fill="white"/>
<path d="M128.083 223.929C128.083 217.798 129.288 212.36 131.697 207.616C134.178 202.872 137.499 199.222 141.66 196.668C145.893 194.113 150.601 192.836 155.783 192.836C160.309 192.836 164.25 193.748 167.608 195.573C171.038 197.397 173.775 199.697 175.819 202.47V193.821H191.256V254.475H175.819V245.607C173.848 248.454 171.111 250.826 167.608 252.724C164.177 254.548 160.199 255.461 155.674 255.461C150.564 255.461 145.893 254.147 141.66 251.519C137.499 248.892 134.178 245.206 131.697 240.461C129.288 235.644 128.083 230.133 128.083 223.929ZM175.819 224.148C175.819 220.426 175.089 217.251 173.629 214.623C172.169 211.922 170.199 209.879 167.717 208.492C165.235 207.032 162.571 206.302 159.725 206.302C156.878 206.302 154.25 206.996 151.842 208.382C149.433 209.769 147.462 211.813 145.93 214.514C144.47 217.141 143.74 220.28 143.74 223.929C143.74 227.579 144.47 230.79 145.93 233.564C147.462 236.265 149.433 238.345 151.842 239.805C154.323 241.264 156.951 241.994 159.725 241.994C162.571 241.994 165.235 241.301 167.717 239.914C170.199 238.454 172.169 236.41 173.629 233.783C175.089 231.082 175.819 227.871 175.819 224.148Z" fill="white"/>
<path d="M221.554 202.58C223.525 199.806 226.226 197.507 229.656 195.682C233.16 193.784 237.138 192.836 241.59 192.836C246.772 192.836 251.444 194.113 255.604 196.668C259.838 199.222 263.159 202.872 265.567 207.616C268.049 212.287 269.29 217.725 269.29 223.929C269.29 230.133 268.049 235.644 265.567 240.461C263.159 245.206 259.838 248.892 255.604 251.519C251.444 254.147 246.772 255.461 241.59 255.461C237.138 255.461 233.196 254.548 229.766 252.724C226.408 250.899 223.671 248.6 221.554 245.826V283.379H206.227V193.821H221.554V202.58ZM253.633 223.929C253.633 220.28 252.867 217.141 251.334 214.514C249.874 211.813 247.904 209.769 245.422 208.382C243.013 206.996 240.386 206.302 237.539 206.302C234.766 206.302 232.138 207.032 229.656 208.492C227.248 209.879 225.277 211.922 223.744 214.623C222.284 217.324 221.554 220.499 221.554 224.148C221.554 227.798 222.284 230.973 223.744 233.673C225.277 236.374 227.248 238.454 229.656 239.914C232.138 241.301 234.766 241.994 237.539 241.994C240.386 241.994 243.013 241.264 245.422 239.805C247.904 238.345 249.874 236.265 251.334 233.564C252.867 230.863 253.633 227.652 253.633 223.929Z" fill="white"/>
<path d="M314.587 192.945C319.186 192.945 323.273 193.967 326.85 196.011C330.426 197.981 333.2 200.937 335.171 204.879C337.214 208.747 338.236 213.419 338.236 218.893V254.475H322.908V220.973C322.908 216.156 321.704 212.47 319.295 209.915C316.887 207.288 313.602 205.974 309.442 205.974C305.208 205.974 301.851 207.288 299.369 209.915C296.96 212.47 295.756 216.156 295.756 220.973V254.475H280.428V173.457H295.756V201.375C297.727 198.748 300.354 196.704 303.639 195.244C306.923 193.711 310.573 192.945 314.587 192.945Z" fill="white"/>
<path d="M360.586 186.595C357.885 186.595 355.622 185.756 353.797 184.077C352.046 182.325 351.17 180.172 351.17 177.617C351.17 175.063 352.046 172.946 353.797 171.267C355.622 169.515 357.885 168.639 360.586 168.639C363.286 168.639 365.512 169.515 367.264 171.267C369.089 172.946 370.001 175.063 370.001 177.617C370.001 180.172 369.089 182.325 367.264 184.077C365.512 185.756 363.286 186.595 360.586 186.595ZM368.14 193.821V254.475H352.812V193.821H368.14Z" fill="white"/>
<path d="M379.343 224.148C379.343 217.871 380.62 212.397 383.175 207.725C385.729 202.981 389.269 199.332 393.795 196.777C398.32 194.149 403.502 192.836 409.341 192.836C416.859 192.836 423.063 194.733 427.954 198.529C432.917 202.251 436.238 207.507 437.917 214.295H421.385C420.509 211.667 419.013 209.623 416.896 208.163C414.852 206.631 412.297 205.864 409.232 205.864C404.852 205.864 401.385 207.47 398.831 210.682C396.276 213.82 394.999 218.309 394.999 224.148C394.999 229.914 396.276 234.403 398.831 237.615C401.385 240.753 404.852 242.323 409.232 242.323C415.436 242.323 419.487 239.549 421.385 234.002H437.917C436.238 240.571 432.917 245.79 427.954 249.658C422.99 253.527 416.786 255.461 409.341 255.461C403.502 255.461 398.32 254.184 393.795 251.629C389.269 249.001 385.729 245.352 383.175 240.68C380.62 235.936 379.343 230.425 379.343 224.148Z" fill="white"/>
<path d="M464.474 190.427V209.587H490.203V221.74H464.474V241.994H493.487V254.475H449.146V177.946H493.487V190.427H464.474Z" fill="white"/>
<path d="M522.745 203.237C524.715 200.025 527.27 197.507 530.408 195.682C533.62 193.857 537.269 192.945 541.357 192.945V209.039H537.306C532.489 209.039 528.839 210.171 526.358 212.433C523.949 214.696 522.745 218.637 522.745 224.258V254.475H507.417V193.821H522.745V203.237Z" fill="white"/>
<path d="M547.74 223.929C547.74 217.798 548.944 212.36 551.353 207.616C553.834 202.872 557.155 199.222 561.316 196.668C565.549 194.113 570.257 192.836 575.439 192.836C579.965 192.836 583.906 193.748 587.264 195.573C590.694 197.397 593.431 199.697 595.475 202.47V193.821H610.912V254.475H595.475V245.607C593.504 248.454 590.767 250.826 587.264 252.724C583.833 254.548 579.855 255.461 575.33 255.461C570.22 255.461 565.549 254.147 561.316 251.519C557.155 248.892 553.834 245.206 551.353 240.461C548.944 235.644 547.74 230.133 547.74 223.929ZM595.475 224.148C595.475 220.426 594.745 217.251 593.285 214.623C591.825 211.922 589.855 209.879 587.373 208.492C584.891 207.032 582.227 206.302 579.381 206.302C576.534 206.302 573.906 206.996 571.498 208.382C569.089 209.769 567.118 211.813 565.586 214.514C564.126 217.141 563.396 220.28 563.396 223.929C563.396 227.579 564.126 230.79 565.586 233.564C567.118 236.265 569.089 238.345 571.498 239.805C573.979 241.264 576.607 241.994 579.381 241.994C582.227 241.994 584.891 241.301 587.373 239.914C589.855 238.454 591.825 236.41 593.285 233.783C594.745 231.082 595.475 227.871 595.475 224.148Z" fill="white"/>
<path d="M640.991 178.055V225.353C640.991 230.535 642.342 234.513 645.042 237.286C647.743 239.987 651.539 241.337 656.429 241.337C661.392 241.337 665.224 239.987 667.925 237.286C670.625 234.513 671.976 230.535 671.976 225.353V178.055H687.413V225.243C687.413 231.739 685.99 237.25 683.143 241.775C680.369 246.228 676.611 249.585 671.866 251.848C667.195 254.111 661.976 255.242 656.21 255.242C650.517 255.242 645.334 254.111 640.663 251.848C636.065 249.585 632.415 246.228 629.715 241.775C627.014 237.25 625.664 231.739 625.664 225.243V178.055H640.991Z" fill="white"/>
<path d="M735.834 192.945C743.06 192.945 748.9 195.244 753.352 199.843C757.804 204.368 760.031 210.718 760.031 218.893V254.475H744.703V220.973C744.703 216.156 743.498 212.47 741.09 209.915C738.681 207.288 735.396 205.974 731.236 205.974C727.003 205.974 723.645 207.288 721.163 209.915C718.755 212.47 717.55 216.156 717.55 220.973V254.475H702.223V193.821H717.55V201.375C719.594 198.748 722.185 196.704 725.324 195.244C728.535 193.711 732.039 192.945 735.834 192.945Z" fill="white"/>
<path d="M782.38 186.595C779.679 186.595 777.417 185.756 775.592 184.077C773.84 182.325 772.964 180.172 772.964 177.617C772.964 175.063 773.84 172.946 775.592 171.267C777.417 169.515 779.679 168.639 782.38 168.639C785.081 168.639 787.307 169.515 789.059 171.267C790.883 172.946 791.796 175.063 791.796 177.617C791.796 180.172 790.883 182.325 789.059 184.077C787.307 185.756 785.081 186.595 782.38 186.595ZM789.934 193.821V254.475H774.607V193.821H789.934Z" fill="white"/>
<path d="M830.369 240.352L845.697 193.821H862.01L839.566 254.475H820.954L798.619 193.821H815.042L830.369 240.352Z" fill="white"/>
<path d="M927.004 222.834C927.004 225.024 926.858 226.995 926.566 228.747H882.225C882.59 233.126 884.123 236.556 886.823 239.038C889.524 241.52 892.845 242.761 896.786 242.761C902.48 242.761 906.531 240.315 908.939 235.425H925.471C923.72 241.264 920.362 246.082 915.399 249.877C910.436 253.6 904.341 255.461 897.115 255.461C891.276 255.461 886.02 254.184 881.349 251.629C876.751 249.001 873.138 245.315 870.51 240.571C867.955 235.827 866.678 230.352 866.678 224.148C866.678 217.871 867.955 212.36 870.51 207.616C873.065 202.872 876.641 199.222 881.24 196.668C885.838 194.113 891.13 192.836 897.115 192.836C902.881 192.836 908.027 194.076 912.552 196.558C917.151 199.04 920.691 202.58 923.172 207.178C925.727 211.703 927.004 216.922 927.004 222.834ZM911.129 218.455C911.056 214.514 909.633 211.375 906.859 209.039C904.085 206.631 900.691 205.426 896.677 205.426C892.881 205.426 889.67 206.594 887.042 208.93C884.488 211.192 882.918 214.368 882.334 218.455H911.129Z" fill="white"/>
<path d="M953.52 203.237C955.491 200.025 958.045 197.507 961.184 195.682C964.396 193.857 968.045 192.945 972.132 192.945V209.039H968.082C963.264 209.039 959.615 210.171 957.133 212.433C954.724 214.696 953.52 218.637 953.52 224.258V254.475H938.192V193.821H953.52V203.237Z" fill="white"/>
<path d="M1005.67 255.461C1000.7 255.461 996.252 254.585 992.31 252.833C988.369 251.008 985.23 248.563 982.895 245.498C980.632 242.432 979.391 239.038 979.172 235.316H994.609C994.901 237.651 996.033 239.586 998.003 241.118C1000.05 242.651 1002.57 243.418 1005.56 243.418C1008.48 243.418 1010.74 242.834 1012.35 241.666C1014.02 240.498 1014.86 239.002 1014.86 237.177C1014.86 235.206 1013.84 233.746 1011.8 232.797C1009.83 231.776 1006.65 230.681 1002.27 229.513C997.748 228.418 994.025 227.287 991.106 226.119C988.259 224.951 985.778 223.163 983.661 220.754C981.617 218.346 980.595 215.097 980.595 211.01C980.595 207.652 981.544 204.587 983.442 201.813C985.413 199.04 988.186 196.85 991.763 195.244C995.412 193.638 999.682 192.836 1004.57 192.836C1011.8 192.836 1017.56 194.66 1021.87 198.31C1026.18 201.886 1028.55 206.74 1028.99 212.871H1014.32C1014.1 210.463 1013.08 208.565 1011.25 207.178C1009.5 205.718 1007.13 204.988 1004.13 204.988C1001.36 204.988 999.208 205.499 997.675 206.521C996.215 207.543 995.485 208.966 995.485 210.791C995.485 212.835 996.507 214.404 998.551 215.499C1000.59 216.521 1003.77 217.579 1008.08 218.674C1012.46 219.769 1016.07 220.9 1018.92 222.068C1021.76 223.236 1024.21 225.061 1026.25 227.542C1028.37 229.951 1029.46 233.162 1029.54 237.177C1029.54 240.68 1028.55 243.819 1026.58 246.593C1024.68 249.366 1021.91 251.556 1018.26 253.162C1014.68 254.694 1010.48 255.461 1005.67 255.461Z" fill="white"/>
<path d="M1049.89 186.595C1047.19 186.595 1044.93 185.756 1043.1 184.077C1041.35 182.325 1040.47 180.172 1040.47 177.617C1040.47 175.063 1041.35 172.946 1043.1 171.267C1044.93 169.515 1047.19 168.639 1049.89 168.639C1052.59 168.639 1054.82 169.515 1056.57 171.267C1058.39 172.946 1059.31 175.063 1059.31 177.617C1059.31 180.172 1058.39 182.325 1056.57 184.077C1054.82 185.756 1052.59 186.595 1049.89 186.595ZM1057.45 193.821V254.475H1042.12V193.821H1057.45Z" fill="white"/>
<path d="M1090.44 206.412V235.754C1090.44 237.797 1090.91 239.294 1091.86 240.242C1092.88 241.118 1094.56 241.556 1096.89 241.556H1104.01V254.475H1094.38C1081.46 254.475 1075 248.198 1075 235.644V206.412H1067.77V193.821H1075V178.821H1090.44V193.821H1104.01V206.412H1090.44Z" fill="white"/>
<path d="M1173.06 193.821L1135.51 283.16H1119.2L1132.33 252.943L1108.03 193.821H1125.22L1140.87 236.192L1156.75 193.821H1173.06Z" fill="white"/>
</svg>
