<svg width="25" height="23" viewBox="0 0 25 23" fill="none" xmlns="http://www.w3.org/2000/svg">
<g clip-path="url(#clip0_1_88)">
<path d="M7.86475 20.8437C17.2964 20.8437 22.4565 13.6531 22.4565 7.41925C22.4565 7.2171 22.4517 7.01046 22.4419 6.80831C23.4457 6.14045 24.312 5.31321 25 4.36546C24.0651 4.74813 23.0725 4.99804 22.0562 5.10667C23.1263 4.51651 23.9276 3.58938 24.3115 2.49716C23.3047 3.04609 22.2037 3.43331 21.0557 3.64222C20.2821 2.88605 19.2594 2.38537 18.1455 2.2176C17.0316 2.04983 15.8887 2.22431 14.8935 2.71406C13.8982 3.20381 13.106 3.98156 12.6394 4.92706C12.1728 5.87256 12.0577 6.93314 12.312 7.94484C10.2734 7.85072 8.2791 7.36352 6.45831 6.51481C4.63753 5.66611 3.03093 4.47485 1.74268 3.01826C1.08792 4.05683 0.887559 5.2858 1.18232 6.45539C1.47709 7.62498 2.24486 8.64744 3.32959 9.31496C2.51524 9.29117 1.71872 9.08945 1.00586 8.72648V8.78488C1.00513 9.87478 1.41469 10.9313 2.16491 11.7748C2.91513 12.6183 3.95971 13.1968 5.12109 13.4118C4.36672 13.6017 3.57498 13.6294 2.80713 13.4927C3.13485 14.43 3.77247 15.2498 4.63101 15.8377C5.48955 16.4256 6.52617 16.7522 7.59619 16.772C5.77961 18.0848 3.5356 18.7968 1.22559 18.7935C0.815924 18.7929 0.406666 18.7698 0 18.7243C2.34673 20.1094 5.07659 20.845 7.86475 20.8437Z" fill="white"/>
</g>
<defs>
<clipPath id="clip0_1_88">
<rect width="25" height="23" fill="white"/>
</clipPath>
</defs>
</svg>
