<svg width="236" height="79" viewBox="0 0 236 79" fill="none" xmlns="http://www.w3.org/2000/svg">
<path d="M4.2411 73.5381L2.30657 70.7502H4.15011L5.18554 72.2864L6.20979 70.7502H7.99642L6.06179 73.5039L8.23529 76.6334H6.39185L5.16289 74.7786L3.9339 76.6334H2.12451L4.2411 73.5381Z" fill="white"/>
<path d="M15.8927 75.5866H10.146V74.3689H15.8927V75.5866ZM15.8927 73.1512H10.146V71.9337H15.8927V73.1512Z" fill="white"/>
<path d="M18.6807 70.7502H20.2964V76.6334H18.6807V70.7502ZM20.2964 69.8398H18.6807V68.5083H20.2964V69.8398Z" fill="white"/>
<path d="M21.3423 70.7502H22.8785V71.5695H22.9128C23.3224 70.9094 24.028 70.5909 24.7106 70.5909C26.4289 70.5909 26.8615 71.558 26.8615 73.0145V76.6334H25.2455V73.3103C25.2455 72.3432 24.9609 71.8653 24.21 71.8653C23.3339 71.8653 22.9583 72.3544 22.9583 73.5494V76.6334H21.3423V70.7502Z" fill="white"/>
<path d="M30.6511 71.8084C29.5929 71.8084 29.2286 72.7188 29.2286 73.6862C29.2286 74.6078 29.6496 75.575 30.6511 75.575C31.7207 75.575 32.0396 74.6419 32.0396 73.6747C32.0396 72.7188 31.698 71.8084 30.6511 71.8084ZM32.0621 75.8823H32.0396C31.664 76.5194 31.0039 76.7927 30.2527 76.7927C28.4777 76.7927 27.6128 75.2677 27.6128 73.6404C27.6128 72.0589 28.4889 70.5909 30.2187 70.5909C30.9129 70.5909 31.5957 70.8867 31.971 71.4673H31.9598H31.9825V68.5083H33.5983V76.6334H32.0621V75.8823Z" fill="white"/>
<path d="M38.5477 73.0601C38.3997 72.2409 38.0471 71.8084 37.2617 71.8084C36.2376 71.8084 35.9418 72.6053 35.919 73.0601H38.5477ZM35.919 74.0843C35.9645 75.1084 36.4653 75.575 37.3643 75.575C38.0129 75.575 38.5365 75.1767 38.6387 74.8126H40.0612C39.6059 76.2009 38.6387 76.7927 37.3075 76.7927C35.4524 76.7927 34.3032 75.5183 34.3032 73.6974C34.3032 71.9336 35.5207 70.5909 37.3075 70.5909C39.3101 70.5909 40.2775 72.2752 40.1635 74.0843H35.919Z" fill="white"/>
<path d="M45.2609 73.7088C45.2609 72.7759 44.8853 71.8085 43.8499 71.8085C42.7917 71.8085 42.4501 72.7531 42.4501 73.7088C42.4501 74.6647 42.8144 75.5751 43.8611 75.5751C44.9196 75.5751 45.2609 74.6647 45.2609 73.7088ZM40.8911 70.7503H42.4274V71.5012H42.4501C42.8369 70.8756 43.4743 70.591 44.2027 70.591C46.046 70.591 46.8769 72.0818 46.8769 73.7543C46.8769 75.3246 46.012 76.7928 44.2937 76.7928C43.5881 76.7928 42.9167 76.4855 42.5299 75.9052H42.5071V78.7044H40.8911V70.7503Z" fill="white"/>
<path d="M51.5765 73.0601C51.4285 72.2409 51.0759 71.8084 50.2905 71.8084C49.2664 71.8084 48.9706 72.6053 48.9478 73.0601H51.5765ZM48.9478 74.0843C48.9933 75.1084 49.4942 75.575 50.3931 75.575C51.0417 75.575 51.5653 75.1767 51.6675 74.8126H53.09C52.6347 76.2009 51.6675 76.7927 50.336 76.7927C48.4812 76.7927 47.332 75.5183 47.332 73.6974C47.332 71.9336 48.5495 70.5909 50.336 70.5909C52.3389 70.5909 53.3063 72.2752 53.1923 74.0843H48.9478Z" fill="white"/>
<path d="M53.9199 70.7502H55.4562V71.5695H55.4904C55.9 70.9094 56.6054 70.5909 57.2883 70.5909C59.0065 70.5909 59.4389 71.558 59.4389 73.0145V76.6334H57.8231V73.3103C57.8231 72.3432 57.5385 71.8653 56.7877 71.8653C55.9115 71.8653 55.536 72.3544 55.536 73.5494V76.6334H53.9199V70.7502Z" fill="white"/>
<path d="M63.2277 71.8084C62.1695 71.8084 61.8052 72.7188 61.8052 73.6862C61.8052 74.6078 62.2263 75.575 63.2277 75.575C64.2974 75.575 64.616 74.6419 64.616 73.6747C64.616 72.7188 64.2747 71.8084 63.2277 71.8084ZM64.6387 75.8823H64.616C64.2407 76.5194 63.5805 76.7927 62.8294 76.7927C61.0544 76.7927 60.1895 75.2677 60.1895 73.6404C60.1895 72.0589 61.0656 70.5909 62.7954 70.5909C63.4895 70.5909 64.1724 70.8867 64.5477 71.4673H64.5365H64.5592V68.5083H66.175V76.6334H64.6387V75.8823Z" fill="white"/>
<path d="M71.1239 73.0601C70.9758 72.2409 70.623 71.8084 69.8379 71.8084C68.8137 71.8084 68.5179 72.6053 68.4952 73.0601H71.1239ZM68.4952 74.0843C68.5407 75.1084 69.0413 75.575 69.9404 75.575C70.589 75.575 71.1126 75.1767 71.2149 74.8126H72.6374C72.1821 76.2009 71.2149 76.7927 69.8834 76.7927C68.0286 76.7927 66.8794 75.5183 66.8794 73.6974C66.8794 71.9336 68.0969 70.5909 69.8834 70.5909C71.8863 70.5909 72.8537 72.2752 72.7396 74.0843H68.4952Z" fill="white"/>
<path d="M73.4678 70.7502H75.004V71.5695H75.0383C75.4479 70.9094 76.1532 70.5909 76.8361 70.5909C78.5544 70.5909 78.9867 71.558 78.9867 73.0145V76.6334H77.3709V73.3103C77.3709 72.3432 77.0864 71.8653 76.3355 71.8653C75.4594 71.8653 75.0838 72.3544 75.0838 73.5494V76.6334H73.4678V70.7502Z" fill="white"/>
<path d="M82.0359 70.7502H83.2193V71.8311H82.0359V74.7444C82.0359 75.2907 82.1724 75.427 82.7187 75.427C82.8893 75.427 83.0485 75.4158 83.2193 75.3815V76.6447C82.9463 76.6902 82.5934 76.7017 82.2749 76.7017C81.2847 76.7017 80.4198 76.4742 80.4198 75.3022V71.8311H79.4414V70.7502H80.4198V68.9864H82.0359V70.7502Z" fill="white"/>
<path d="M83.811 68.5083H85.4268V76.6334H83.811V68.5083Z" fill="white"/>
<path d="M89.3756 77.3729C89.0228 78.3176 88.4652 78.7044 87.35 78.7044C87.02 78.7044 86.6899 78.6817 86.3601 78.6474V77.3159C86.6672 77.3389 86.9857 77.3844 87.3045 77.3729C87.8621 77.3159 88.0442 76.7358 87.8621 76.2695L85.791 70.7503H87.5208L88.852 74.7787H88.8748L90.1608 70.7503H91.8336L89.3756 77.3729Z" fill="white"/>
<path d="M97.9435 75.575C99.0472 75.575 99.3773 74.6306 99.3773 73.6974C99.3773 72.753 99.0472 71.8084 97.9435 71.8084C96.8511 71.8084 96.521 72.753 96.521 73.6974C96.521 74.6306 96.8511 75.575 97.9435 75.575ZM97.9435 70.5909C99.7984 70.5909 100.993 71.8196 100.993 73.6974C100.993 75.5638 99.7984 76.7927 97.9435 76.7927C96.1 76.7927 94.9053 75.5638 94.9053 73.6974C94.9053 71.8196 96.1 70.5909 97.9435 70.5909Z" fill="white"/>
<path d="M101.584 70.7502H103.121V71.8426H103.143C103.439 71.103 104.236 70.5909 105.021 70.5909C105.135 70.5909 105.271 70.6136 105.374 70.6476V72.1496C105.226 72.1159 104.987 72.0929 104.793 72.0929C103.61 72.0929 103.2 72.9463 103.2 73.9817V76.6334H101.584V70.7502Z" fill="white"/>
<path d="M109.903 73.618C109.903 72.6618 109.573 71.8084 108.526 71.8084C107.615 71.8084 107.217 72.6053 107.217 73.4812C107.217 74.3234 107.536 75.2453 108.526 75.2453C109.447 75.2453 109.903 74.4599 109.903 73.618ZM111.439 76.258C111.439 77.2251 111.098 78.8636 108.389 78.8636C107.228 78.8636 105.874 78.3176 105.795 76.9748H107.399C107.547 77.5779 108.036 77.783 108.605 77.783C109.505 77.783 109.914 77.1681 109.903 76.3262V75.5523H109.88C109.527 76.1669 108.822 76.4627 108.116 76.4627C106.352 76.4627 105.601 75.12 105.601 73.504C105.601 71.979 106.477 70.591 108.128 70.591C108.901 70.591 109.493 70.8525 109.88 71.5354H109.903V70.7503H111.439V76.258Z" fill="white"/>
<path d="M115.945 73.7542C115.672 73.9932 115.103 74.0047 114.602 74.0958C114.101 74.198 113.646 74.3688 113.646 74.9607C113.646 75.5638 114.113 75.7115 114.636 75.7115C115.899 75.7115 115.945 74.7104 115.945 74.3573V73.7542ZM112.213 72.5595C112.304 71.046 113.658 70.5909 114.978 70.5909C116.15 70.5909 117.561 70.8524 117.561 72.2637V75.3245C117.561 75.8593 117.618 76.3944 117.766 76.6334H116.127C116.07 76.4514 116.025 76.2579 116.013 76.0643C115.501 76.5994 114.75 76.7927 114.033 76.7927C112.918 76.7927 112.03 76.2351 112.03 75.0289C112.03 73.6974 113.032 73.3786 114.033 73.2424C115.023 73.0943 115.945 73.1286 115.945 72.4685C115.945 71.7744 115.467 71.6718 114.898 71.6718C114.283 71.6718 113.885 71.9221 113.828 72.5595H112.213Z" fill="white"/>
<path d="M118.584 70.7502H120.12V71.5695H120.155C120.564 70.9094 121.27 70.5909 121.953 70.5909C123.671 70.5909 124.103 71.558 124.103 73.0145V76.6334H122.487V73.3103C122.487 72.3432 122.203 71.8653 121.452 71.8653C120.576 71.8653 120.2 72.3544 120.2 73.5494V76.6334H118.584V70.7502Z" fill="white"/>
<path d="M124.922 70.7502H126.538V76.6334H124.922V70.7502ZM126.538 69.8398H124.922V68.5083H126.538V69.8398Z" fill="white"/>
<path d="M127.22 75.4157L130.282 71.9679H127.448V70.7502H132.409V71.9679L129.348 75.4157H132.626V76.6334H127.22V75.4157Z" fill="white"/>
<path d="M137.223 73.0601C137.075 72.2409 136.722 71.8084 135.937 71.8084C134.913 71.8084 134.617 72.6053 134.594 73.0601H137.223ZM134.594 74.0843C134.64 75.1084 135.14 75.575 136.039 75.575C136.688 75.575 137.211 75.1767 137.314 74.8126H138.736C138.281 76.2009 137.314 76.7927 135.982 76.7927C134.127 76.7927 132.978 75.5183 132.978 73.6974C132.978 71.9336 134.196 70.5909 135.982 70.5909C137.985 70.5909 138.952 72.2752 138.839 74.0843H134.594Z" fill="white"/>
<path d="M142.354 71.8084C141.296 71.8084 140.932 72.7188 140.932 73.6862C140.932 74.6078 141.353 75.575 142.354 75.575C143.424 75.575 143.742 74.6419 143.742 73.6747C143.742 72.7188 143.401 71.8084 142.354 71.8084ZM143.765 75.8823H143.742C143.367 76.5194 142.707 76.7927 141.956 76.7927C140.181 76.7927 139.316 75.2677 139.316 73.6404C139.316 72.0589 140.192 70.5909 141.922 70.5909C142.616 70.5909 143.299 70.8867 143.674 71.4673H143.663H143.685V68.5083H145.302V76.6334H143.765V75.8823Z" fill="white"/>
<path d="M151.195 70.0105H148.76V68.5083H155.417V70.0105H152.982V76.6334H151.195V70.0105Z" fill="white"/>
<path d="M156.122 68.5083H162.199V70.0105H157.909V71.7516H161.846V73.1398H157.909V75.1314H162.29V76.6334H156.122V68.5083Z" fill="white"/>
<path d="M164.827 75.1314H166.42C167.456 75.1314 168.446 74.4941 168.446 72.696C168.446 71.0572 167.877 70.0105 166.102 70.0105H164.827V75.1314ZM163.041 68.5083H166.545C168.651 68.5083 170.232 69.8282 170.232 72.5252C170.232 74.8809 169.026 76.6334 166.545 76.6334H163.041V68.5083Z" fill="white"/>
<path d="M177.97 73.0601C177.822 72.2409 177.469 71.8084 176.684 71.8084C175.66 71.8084 175.364 72.6053 175.341 73.0601H177.97ZM175.341 74.0843C175.386 75.1084 175.887 75.575 176.786 75.575C177.435 75.575 177.958 75.1767 178.061 74.8126H179.483C179.028 76.2009 178.061 76.7927 176.729 76.7927C174.875 76.7927 173.725 75.5183 173.725 73.6974C173.725 71.9336 174.943 70.5909 176.729 70.5909C178.732 70.5909 179.699 72.2752 179.586 74.0843H175.341Z" fill="white"/>
<path d="M183.34 76.6334H181.542L179.528 70.7502H181.224L182.464 74.7671H182.487L183.727 70.7502H185.332L183.34 76.6334Z" fill="white"/>
<path d="M189.508 73.0601C189.36 72.2409 189.007 71.8084 188.222 71.8084C187.198 71.8084 186.902 72.6053 186.879 73.0601H189.508ZM186.879 74.0843C186.924 75.1084 187.425 75.575 188.324 75.575C188.973 75.575 189.496 75.1767 189.599 74.8126H191.021C190.566 76.2009 189.599 76.7927 188.267 76.7927C186.412 76.7927 185.263 75.5183 185.263 73.6974C185.263 71.9336 186.481 70.5909 188.267 70.5909C190.27 70.5909 191.237 72.2752 191.123 74.0843H186.879Z" fill="white"/>
<path d="M191.851 70.7502H193.387V71.5695H193.421C193.831 70.9094 194.537 70.5909 195.219 70.5909C196.938 70.5909 197.37 71.558 197.37 73.0145V76.6334H195.754V73.3103C195.754 72.3432 195.47 71.8653 194.719 71.8653C193.842 71.8653 193.467 72.3544 193.467 73.5494V76.6334H191.851V70.7502Z" fill="white"/>
<path d="M200.419 70.7502H201.603V71.8311H200.419V74.7444C200.419 75.2907 200.556 75.427 201.102 75.427C201.273 75.427 201.432 75.4158 201.603 75.3815V76.6447C201.33 76.6902 200.977 76.7017 200.658 76.7017C199.668 76.7017 198.803 76.4742 198.803 75.3022V71.8311H197.825V70.7502H198.803V68.9864H200.419V70.7502Z" fill="white"/>
<path d="M9.11182 6.98594H1.53027V0.0521641H25.0202V6.98594H17.4414V27.1052H9.11182V6.98594Z" fill="white"/>
<path d="M26.3145 0.0521641H49.1173V6.98594H34.6495V10.3571H49.1173V16.8002H34.6495V20.1716H49.1212V27.1052H26.3145V0.0521641Z" fill="white"/>
<path d="M58.8546 20.1716H62.1142C67.3064 20.1716 68.0655 15.9645 68.0655 13.4232C68.0655 11.7215 67.5322 6.98594 61.5073 6.98594H58.8546V20.1716ZM50.52 0.0521641H64.1979C73.214 0.0521641 76.4006 6.72083 76.4006 13.5388C76.4006 21.8391 72.0052 27.1052 62.5703 27.1052H50.52V0.0521641Z" fill="white"/>
<path d="M88.3774 16.6801L85.8349 12.4637L83.3555 16.6801H77.2485L83.0462 8.15479L77.4635 -2.67029e-05H83.5726L85.8349 4.03099L88.1622 -2.67029e-05H94.2694L88.6886 8.15479L94.4859 16.6801H88.3774Z" fill="white"/>
<path d="M11.4538 40.4472C11.1013 39.8011 10.6167 39.3092 10 38.9714C9.38327 38.6337 8.66374 38.4648 7.84142 38.4648C6.93099 38.4648 6.12335 38.6704 5.41851 39.0816C4.71366 39.4927 4.163 40.0801 3.76652 40.8437C3.37005 41.6073 3.17181 42.4883 3.17181 43.4868C3.17181 44.5148 3.37005 45.4105 3.76652 46.1741C4.17768 46.9377 4.74303 47.525 5.46256 47.9362C6.18209 48.3474 7.0191 48.5529 7.97357 48.5529C9.14832 48.5529 10.1101 48.2446 10.859 47.6278C11.6079 46.9964 12.0999 46.1227 12.3348 45.0067H7.04846V42.6498H15.3745V45.3371C15.1689 46.409 14.7284 47.4002 14.0529 48.3106C13.3774 49.2211 12.5037 49.9553 11.4317 50.5133C10.3745 51.0566 9.18503 51.3283 7.86344 51.3283C6.38033 51.3283 5.03672 50.9979 3.8326 50.3371C2.64317 49.6616 1.70338 48.7291 1.01322 47.5397C0.337739 46.3503 0 44.9993 0 43.4868C0 41.9744 0.337739 40.6234 1.01322 39.434C1.70338 38.2299 2.64317 37.2974 3.8326 36.6366C5.03672 35.9611 6.37299 35.6234 7.84142 35.6234C9.57416 35.6234 11.0793 36.0492 12.3568 36.9009C13.6344 37.7379 14.5154 38.92 15 40.4472H11.4538Z" fill="white"/>
<path d="M20.7396 40.8877C21.1361 40.2416 21.6501 39.735 22.2815 39.3679C22.9276 39.0008 23.6618 38.8172 24.4841 38.8172V42.0551H23.6691C22.7 42.0551 21.9658 42.2827 21.4665 42.7379C20.9819 43.1932 20.7396 43.9861 20.7396 45.1168V51.1961H17.6559V38.9935H20.7396V40.8877Z" fill="white"/>
<path d="M25.7682 45.0507C25.7682 43.8172 26.0105 42.7233 26.4951 41.7688C26.9943 40.8143 27.6625 40.0801 28.4995 39.5661C29.3512 39.0522 30.2983 38.7952 31.3409 38.7952C32.2513 38.7952 33.0443 38.9788 33.7197 39.3459C34.4099 39.713 34.9606 40.1755 35.3717 40.7335V38.9935H38.4775V51.1961H35.3717V49.412C34.9752 49.9847 34.4246 50.4619 33.7197 50.8437C33.0296 51.2108 32.2293 51.3943 31.3189 51.3943C30.291 51.3943 29.3512 51.13 28.4995 50.6014C27.6625 50.0728 26.9943 49.3312 26.4951 48.3767C26.0105 47.4076 25.7682 46.2989 25.7682 45.0507ZM35.3717 45.0948C35.3717 44.3459 35.2249 43.7071 34.9312 43.1785C34.6375 42.6352 34.241 42.224 33.7418 41.945C33.2425 41.6513 32.7065 41.5045 32.1338 41.5045C31.5611 41.5045 31.0325 41.644 30.5479 41.923C30.0634 42.202 29.6669 42.6131 29.3585 43.1565C29.0648 43.6851 28.918 44.3165 28.918 45.0507C28.918 45.7849 29.0648 46.4311 29.3585 46.9891C29.6669 47.5324 30.0634 47.9509 30.5479 48.2446C31.0472 48.5382 31.5758 48.6851 32.1338 48.6851C32.7065 48.6851 33.2425 48.5456 33.7418 48.2666C34.241 47.9729 34.6375 47.5617 34.9312 47.0331C35.2249 46.4898 35.3717 45.8437 35.3717 45.0948Z" fill="white"/>
<path d="M44.5729 40.7556C44.9694 40.1976 45.5127 39.735 46.2029 39.3679C46.9077 38.9861 47.708 38.7952 48.6038 38.7952C49.6464 38.7952 50.5861 39.0522 51.4232 39.5661C52.2748 40.0801 52.943 40.8143 53.4276 41.7688C53.9268 42.7086 54.1765 43.8026 54.1765 45.0507C54.1765 46.2989 53.9268 47.4076 53.4276 48.3767C52.943 49.3312 52.2748 50.0728 51.4232 50.6014C50.5861 51.13 49.6464 51.3943 48.6038 51.3943C47.708 51.3943 46.9151 51.2108 46.2249 50.8437C45.5494 50.4766 44.9988 50.014 44.5729 49.456V57.0111H41.4892V38.9935H44.5729V40.7556ZM51.0267 45.0507C51.0267 44.3165 50.8725 43.6851 50.5641 43.1565C50.2704 42.6131 49.874 42.202 49.3747 41.923C48.8901 41.644 48.3615 41.5045 47.7888 41.5045C47.2308 41.5045 46.7022 41.6513 46.2029 41.945C45.7183 42.224 45.3218 42.6352 45.0135 43.1785C44.7198 43.7218 44.5729 44.3606 44.5729 45.0948C44.5729 45.829 44.7198 46.4678 45.0135 47.0111C45.3218 47.5544 45.7183 47.9729 46.2029 48.2666C46.7022 48.5456 47.2308 48.6851 47.7888 48.6851C48.3615 48.6851 48.8901 48.5382 49.3747 48.2446C49.874 47.9509 50.2704 47.5324 50.5641 46.9891C50.8725 46.4457 51.0267 45.7996 51.0267 45.0507Z" fill="white"/>
<path d="M63.2896 38.8172C64.2147 38.8172 65.037 39.0228 65.7565 39.434C66.4761 39.8305 67.0341 40.4252 67.4305 41.2181C67.8417 41.9964 68.0473 42.9362 68.0473 44.0375V51.1961H64.9636V44.456C64.9636 43.4868 64.7213 42.7453 64.2367 42.2313C63.7521 41.7027 63.0913 41.4384 62.2543 41.4384C61.4026 41.4384 60.7271 41.7027 60.2279 42.2313C59.7433 42.7453 59.501 43.4868 59.501 44.456V51.1961H56.4173V34.8965H59.501V40.5133C59.8975 39.9846 60.4261 39.5735 61.0869 39.2798C61.7477 38.9714 62.4819 38.8172 63.2896 38.8172Z" fill="white"/>
<path d="M72.5436 37.5397C72.0003 37.5397 71.5451 37.3708 71.178 37.0331C70.8255 36.6807 70.6493 36.2475 70.6493 35.7335C70.6493 35.2196 70.8255 34.7937 71.178 34.456C71.5451 34.1036 72.0003 33.9274 72.5436 33.9274C73.0869 33.9274 73.5348 34.1036 73.8872 34.456C74.2543 34.7937 74.4379 35.2196 74.4379 35.7335C74.4379 36.2475 74.2543 36.6807 73.8872 37.0331C73.5348 37.3708 73.0869 37.5397 72.5436 37.5397ZM74.0634 38.9935V51.1961H70.9797V38.9935H74.0634Z" fill="white"/>
<path d="M76.3172 45.0948C76.3172 43.8319 76.5742 42.7306 77.0881 41.7908C77.6021 40.8363 78.3142 40.1021 79.2247 39.5882C80.1351 39.0595 81.1777 38.7952 82.3524 38.7952C83.8649 38.7952 85.1131 39.177 86.0969 39.9406C87.0955 40.6895 87.7636 41.7468 88.1013 43.1124H84.7753C84.5991 42.5838 84.2981 42.1726 83.8722 41.8789C83.4611 41.5705 82.9471 41.4164 82.3304 41.4164C81.4493 41.4164 80.7518 41.7394 80.2379 42.3855C79.7239 43.017 79.467 43.92 79.467 45.0948C79.467 46.2548 79.7239 47.1579 80.2379 47.804C80.7518 48.4355 81.4493 48.7512 82.3304 48.7512C83.5786 48.7512 84.3935 48.1932 84.7753 47.0772H88.1013C87.7636 48.3987 87.0955 49.4487 86.0969 50.2269C85.0984 51.0052 83.8502 51.3943 82.3524 51.3943C81.1777 51.3943 80.1351 51.1374 79.2247 50.6234C78.3142 50.0948 77.6021 49.3606 77.0881 48.4208C76.5742 47.4663 76.3172 46.3576 76.3172 45.0948Z" fill="white"/>
<path d="M93.4441 38.3106V42.1653H98.6203V44.6102H93.4441V48.6851H99.2811V51.1961H90.3604V35.7996H99.2811V38.3106H93.4441Z" fill="white"/>
<path d="M105.167 40.8877C105.564 40.2416 106.078 39.735 106.709 39.3679C107.355 39.0008 108.089 38.8172 108.912 38.8172V42.0551H108.097C107.128 42.0551 106.393 42.2827 105.894 42.7379C105.409 43.1932 105.167 43.9861 105.167 45.1168V51.1961H102.083V38.9935H105.167V40.8877Z" fill="white"/>
<path d="M110.196 45.0507C110.196 43.8172 110.438 42.7233 110.923 41.7688C111.422 40.8143 112.09 40.0801 112.927 39.5661C113.779 39.0522 114.726 38.7952 115.768 38.7952C116.679 38.7952 117.472 38.9788 118.147 39.3459C118.837 39.713 119.388 40.1755 119.799 40.7335V38.9935H122.905V51.1961H119.799V49.412C119.403 49.9847 118.852 50.4619 118.147 50.8437C117.457 51.2108 116.657 51.3943 115.746 51.3943C114.719 51.3943 113.779 51.13 112.927 50.6014C112.09 50.0728 111.422 49.3312 110.923 48.3767C110.438 47.4076 110.196 46.2989 110.196 45.0507ZM119.799 45.0948C119.799 44.3459 119.652 43.7071 119.359 43.1785C119.065 42.6352 118.669 42.224 118.169 41.945C117.67 41.6513 117.134 41.5045 116.561 41.5045C115.989 41.5045 115.46 41.644 114.975 41.923C114.491 42.202 114.094 42.6131 113.786 43.1565C113.492 43.6851 113.346 44.3165 113.346 45.0507C113.346 45.7849 113.492 46.4311 113.786 46.9891C114.094 47.5324 114.491 47.9509 114.975 48.2446C115.475 48.5382 116.003 48.6851 116.561 48.6851C117.134 48.6851 117.67 48.5456 118.169 48.2666C118.669 47.9729 119.065 47.5617 119.359 47.0331C119.652 46.4898 119.799 45.8437 119.799 45.0948Z" fill="white"/>
<path d="M128.956 35.8216V45.3371C128.956 46.3797 129.228 47.18 129.771 47.738C130.315 48.2813 131.078 48.5529 132.062 48.5529C133.061 48.5529 133.832 48.2813 134.375 47.738C134.918 47.18 135.19 46.3797 135.19 45.3371V35.8216H138.296V45.315C138.296 46.6219 138.009 47.7306 137.437 48.641C136.879 49.5368 136.122 50.2123 135.168 50.6675C134.228 51.1227 133.178 51.3503 132.018 51.3503C130.873 51.3503 129.83 51.1227 128.89 50.6675C127.965 50.2123 127.231 49.5368 126.688 48.641C126.144 47.7306 125.873 46.6219 125.873 45.315V35.8216H128.956Z" fill="white"/>
<path d="M148.037 38.8172C149.491 38.8172 150.666 39.2798 151.561 40.2049C152.457 41.1153 152.905 42.3929 152.905 44.0375V51.1961H149.821V44.456C149.821 43.4868 149.579 42.7453 149.094 42.2313C148.61 41.7027 147.949 41.4384 147.112 41.4384C146.26 41.4384 145.585 41.7027 145.086 42.2313C144.601 42.7453 144.359 43.4868 144.359 44.456V51.1961H141.275V38.9935H144.359V40.5133C144.77 39.9846 145.291 39.5735 145.923 39.2798C146.569 38.9714 147.274 38.8172 148.037 38.8172Z" fill="white"/>
<path d="M157.401 37.5397C156.858 37.5397 156.403 37.3708 156.036 37.0331C155.683 36.6807 155.507 36.2475 155.507 35.7335C155.507 35.2196 155.683 34.7937 156.036 34.456C156.403 34.1036 156.858 33.9274 157.401 33.9274C157.945 33.9274 158.393 34.1036 158.745 34.456C159.112 34.7937 159.296 35.2196 159.296 35.7335C159.296 36.2475 159.112 36.6807 158.745 37.0331C158.393 37.3708 157.945 37.5397 157.401 37.5397ZM158.921 38.9935V51.1961H155.837V38.9935H158.921Z" fill="white"/>
<path d="M167.056 48.3547L170.14 38.9935H173.422L168.906 51.1961H165.162L160.668 38.9935H163.972L167.056 48.3547Z" fill="white"/>
<path d="M186.497 44.8305C186.497 45.271 186.468 45.6675 186.409 46.0199H177.488C177.562 46.9009 177.87 47.5911 178.414 48.0904C178.957 48.5896 179.625 48.8393 180.418 48.8393C181.563 48.8393 182.378 48.3474 182.863 47.3635H186.189C185.836 48.5382 185.161 49.5074 184.162 50.271C183.164 51.0199 181.938 51.3943 180.484 51.3943C179.309 51.3943 178.252 51.1374 177.312 50.6234C176.387 50.0948 175.66 49.3532 175.132 48.3987C174.618 47.4443 174.361 46.3429 174.361 45.0948C174.361 43.8319 174.618 42.7233 175.132 41.7688C175.646 40.8143 176.365 40.0801 177.29 39.5661C178.215 39.0522 179.28 38.7952 180.484 38.7952C181.644 38.7952 182.679 39.0448 183.59 39.5441C184.515 40.0434 185.227 40.7556 185.726 41.6807C186.24 42.5911 186.497 43.641 186.497 44.8305ZM183.303 43.9494C183.289 43.1565 183.002 42.525 182.444 42.0551C181.886 41.5705 181.204 41.3283 180.396 41.3283C179.632 41.3283 178.986 41.5632 178.458 42.0331C177.944 42.4883 177.628 43.1271 177.51 43.9494H183.303Z" fill="white"/>
<path d="M191.832 40.8877C192.228 40.2416 192.742 39.735 193.374 39.3679C194.02 39.0008 194.754 38.8172 195.576 38.8172V42.0551H194.761C193.792 42.0551 193.058 42.2827 192.559 42.7379C192.074 43.1932 191.832 43.9861 191.832 45.1168V51.1961H188.748V38.9935H191.832V40.8877Z" fill="white"/>
<path d="M202.323 51.3943C201.324 51.3943 200.429 51.2181 199.636 50.8657C198.843 50.4986 198.211 50.0067 197.741 49.3899C197.286 48.7732 197.037 48.0904 196.993 47.3415H200.098C200.157 47.8114 200.385 48.2005 200.781 48.5089C201.192 48.8173 201.699 48.9714 202.301 48.9714C202.888 48.9714 203.343 48.854 203.667 48.619C204.004 48.3841 204.173 48.083 204.173 47.7159C204.173 47.3195 203.968 47.0258 203.556 46.8349C203.16 46.6293 202.521 46.409 201.64 46.1741C200.73 45.9538 199.981 45.7262 199.393 45.4913C198.821 45.2563 198.321 44.8965 197.896 44.412C197.484 43.9274 197.279 43.2739 197.279 42.4516C197.279 41.7761 197.47 41.1594 197.852 40.6014C198.248 40.0434 198.806 39.6029 199.526 39.2798C200.26 38.9567 201.119 38.7952 202.103 38.7952C203.556 38.7952 204.716 39.1623 205.583 39.8965C206.449 40.6161 206.926 41.5926 207.015 42.8261H204.063C204.019 42.3415 203.813 41.9597 203.446 41.6807C203.094 41.387 202.617 41.2402 202.015 41.2402C201.457 41.2402 201.023 41.3429 200.715 41.5485C200.421 41.7541 200.274 42.0404 200.274 42.4076C200.274 42.8187 200.48 43.1344 200.891 43.3547C201.302 43.5603 201.941 43.7732 202.807 43.9935C203.689 44.2137 204.415 44.4413 204.988 44.6763C205.561 44.9112 206.053 45.2783 206.464 45.7776C206.89 46.2622 207.11 46.9083 207.125 47.7159C207.125 48.4208 206.926 49.0522 206.53 49.6102C206.148 50.1682 205.59 50.6087 204.856 50.9318C204.136 51.2402 203.292 51.3943 202.323 51.3943Z" fill="white"/>
<path d="M211.22 37.5397C210.677 37.5397 210.221 37.3708 209.854 37.0331C209.502 36.6807 209.326 36.2475 209.326 35.7335C209.326 35.2196 209.502 34.7937 209.854 34.456C210.221 34.1036 210.677 33.9274 211.22 33.9274C211.763 33.9274 212.211 34.1036 212.564 34.456C212.931 34.7937 213.114 35.2196 213.114 35.7335C213.114 36.2475 212.931 36.6807 212.564 37.0331C212.211 37.3708 211.763 37.5397 211.22 37.5397ZM212.74 38.9935V51.1961H209.656V38.9935H212.74Z" fill="white"/>
<path d="M219.377 41.5265V47.4296C219.377 47.8407 219.472 48.1418 219.663 48.3327C219.869 48.5089 220.206 48.597 220.676 48.597H222.108V51.1961H220.17C217.571 51.1961 216.271 49.9333 216.271 47.4076V41.5265H214.817V38.9935H216.271V35.9758H219.377V38.9935H222.108V41.5265H219.377Z" fill="white"/>
<path d="M236 38.9935L228.445 56.967H225.163L227.806 50.8877L222.916 38.9935H226.374L229.524 47.5177L232.718 38.9935H236Z" fill="white"/>
</svg>
