<svg width="278" height="226" viewBox="0 0 278 226" fill="none" xmlns="http://www.w3.org/2000/svg">
<path d="M44.6378 0L73.7222 47.0718H74.9665L104.362 0H147.445L99.3852 74.5001L149 149H104.829L74.9665 101.419H73.7222L43.8603 149H0L49.3815 74.5001L1.24426 0H44.6378Z" fill="white"/>
<path d="M173.144 153.729L127.121 82.5H167.861L195.823 127.755L195.97 127.992H196.248H197.451H197.728L197.875 127.757L226.138 82.5H266.579L220.63 153.729L220.452 154.004L220.634 154.277L268.066 225.5H226.588L197.874 179.75L197.727 179.516H197.451H196.248H195.972L195.825 179.75L167.112 225.5H125.931L173.141 154.276L173.322 154.004L173.144 153.729Z" stroke="black"/>
<path d="M182.144 123.227L136.124 52.5H176.862L204.824 97.4404L204.971 97.6763H205.248H206.451H206.727L206.874 97.4424L235.137 52.5H275.576L229.631 123.228L229.451 123.504L229.635 123.779L277.063 194.5H235.587L206.874 149.068L206.726 148.835H206.451H205.248H204.973L204.826 149.068L176.113 194.5H134.935L182.14 123.778L182.323 123.504L182.144 123.227Z" stroke="white"/>
</svg>
